<?xml version="1.0" encoding="UTF-8"?>
<svg width="612px" height="386px" viewBox="0 0 612 386" version="1.1" xmlns="http://www.w3.org/2000/svg" xmlns:xlink="http://www.w3.org/1999/xlink">
    <title>illustration / drawkit / transport / airport taxi</title>
    <g id="career-paths" stroke="none" stroke-width="1" fill="none" fill-rule="evenodd">
        <g id="tests---submitting" transform="translate(-752.000000, -51.000000)">
            <g id="illustration" transform="translate(-1.500000, 0.000000)">
                <g id="illustration-/-drawkit-/-transport-/-tube" transform="translate(754.500000, 51.000000)">
                    <g id="DOOR" transform="translate(409.912917, 33.608358)">
                        <path d="M18.0762128,8.3478891 L72.9914236,8.3478891 C79.2337529,8.3478891 84.2941605,13.8586222 84.2941605,20.6564558 L84.2941605,136.575025 C84.2941605,141.9549 80.2893022,146.31615 75.349059,146.31615 L15.7170651,146.31615 C10.776822,146.31615 6.7719636,141.9549 6.7719636,136.575025 L6.7719636,20.6564558 C6.7719636,17.3917356 7.96299181,14.2607539 10.0829932,11.9524026 C12.2029947,9.64405125 15.0782786,8.3478891 18.0762128,8.3478891 Z" id="Path" fill="#CEE4ED" fill-rule="nonzero"></path>
                        <rect id="Rectangle" fill="#CEE4ED" fill-rule="nonzero" x="98.0074624" y="8.34788921" width="77.5221969" height="137.968261" rx="38.7610985"></rect>
                        <line x1="45.0597203" y1="51.3834073" x2="61.7930336" y2="26.8519104" id="Path" stroke="#FFFFFF" stroke-linecap="round" stroke-linejoin="round"></line>
                        <line x1="6.30769544" y1="108.19319" x2="34.4102858" y2="66.9955575" id="Path" stroke="#FFFFFF" stroke-linecap="round" stroke-linejoin="round"></line>
                        <path d="M0.0483927725,346.360824 L0.0483927725,20.4851833 C0.0525655804,9.21343109 8.44238197,0.0770056027 18.7930307,0.072461457 L163.510105,0.072461457 C173.866658,0.072461457 182.262304,9.21523491 182.262304,20.4934175 L182.262304,346.360824" id="Path" stroke="#592D29" stroke-linecap="round" stroke-linejoin="round"></path>
                        <line x1="91.1508115" y1="0.072461457" x2="91.1508115" y2="346.003457" id="Path" stroke="#592D29" stroke-linecap="round" stroke-linejoin="round"></line>
                        <line x1="149.190381" y1="48.9444205" x2="166.026529" y2="24.264707" id="Path" stroke="#FFFFFF" stroke-linecap="round" stroke-linejoin="round"></line>
                        <line x1="133.50961" y1="86.8154129" x2="159.342277" y2="48.9444205" id="Path" stroke="#FFFFFF" stroke-linecap="round" stroke-linejoin="round"></line>
                        <line x1="141.926928" y1="59.592961" x2="145.31291" y2="54.630998" id="Path" stroke="#FFFFFF" stroke-linecap="round" stroke-linejoin="round"></line>
                        <line x1="107.797925" y1="109.627597" x2="135.135305" y2="69.5514707" id="Path" stroke="#FFFFFF" stroke-linecap="round" stroke-linejoin="round"></line>
                    </g>
                    <g id="WINDOW" transform="translate(9.738752, 42.294925)">
                        <rect id="Rectangle" fill="#CEE4ED" fill-rule="nonzero" x="0.119360716" y="0.113508619" width="245.957109" height="137.817559" rx="68.9087795"></rect>
                        <line x1="193.879575" y1="49.1410068" x2="214.036428" y2="19.5958648" id="Path" stroke="#FFFFFF" stroke-linecap="round" stroke-linejoin="round"></line>
                        <line x1="167.460063" y1="105.679814" x2="206.034727" y2="49.1410068" id="Path" stroke="#FFFFFF" stroke-linecap="round" stroke-linejoin="round"></line>
                        <line x1="144.316171" y1="121.786523" x2="186.0894" y2="60.5593158" id="Path" stroke="#FFFFFF" stroke-linecap="round" stroke-linejoin="round"></line>
                        <line x1="55.5646797" y1="113.431302" x2="76.8184417" y2="82.2789433" id="Path" stroke="#FFFFFF" stroke-linecap="round" stroke-linejoin="round"></line>
                        <line x1="39.1427604" y1="120.11844" x2="87.7845186" y2="48.8251567" id="Path" stroke="#FFFFFF" stroke-linecap="round" stroke-linejoin="round"></line>
                    </g>
                    <g id="SEAT" transform="translate(10.624093, 190.931741)">
                        <path d="M305.318487,0.13347652 L313.337854,0.13347652 C328.766561,0.13347652 341.274,13.7549476 341.274,30.5578838 L341.274,55.5048101 C341.274,59.0850923 338.60898,61.9874845 335.321511,61.9874845 L283.334829,61.9874845 C280.047361,61.9874845 277.382341,59.0850923 277.382341,55.5048101 L277.382341,30.5578838 C277.382341,13.7549476 289.889779,0.13347652 305.318487,0.13347652 Z" id="Path" fill="#BDDCE8" fill-rule="nonzero"></path>
                        <path d="M213.95066,0.13347652 L221.970027,0.13347652 C237.398735,0.13347652 249.906173,13.7549476 249.906173,30.5578838 L249.906173,55.5048101 C249.906173,59.0850923 247.241153,61.9874845 243.953685,61.9874845 L191.973055,61.9874845 C188.685587,61.9874845 186.020567,59.0850923 186.020567,55.5048101 L186.020567,30.5578838 C186.020567,13.7575214 198.524317,0.13711631 213.95066,0.13347652 Z" id="Path" fill="#7EBAD2" fill-rule="nonzero"></path>
                        <path d="M0.119533962,87.6083849 L362.914587,87.6083849 C362.944025,83.0642411 361.307173,78.6950936 358.366939,75.4706981 C355.426704,72.2463025 351.426331,70.4334115 347.253724,70.4344056 L15.8874253,70.4344056 C7.17881461,70.435316 0.119533962,78.1241018 0.119533962,87.6083849 L0.119533962,87.6083849 Z" id="Path" fill="#BDDCE8" fill-rule="nonzero"></path>
                        <line x1="362.93083" y1="87.6479335" x2="1.34816152" y2="87.6479335" id="Path" stroke="#592D29" stroke-linecap="round" stroke-linejoin="round"></line>
                        <path d="M122.594939,0.13347652 L130.614306,0.13347652 C146.043013,0.13347652 158.550452,13.7549476 158.550452,30.5578838 L158.550452,54.9198204 C158.550452,58.8231835 155.644943,61.9874845 152.060817,61.9874845 L101.149941,61.9874845 C97.5658145,61.9874845 94.660306,58.8231835 94.660306,54.9198204 L94.660306,30.5578838 C94.660306,13.7555911 107.166822,0.134386572 122.594939,0.13347652 Z" id="Path" fill="#BDDCE8" fill-rule="nonzero"></path>
                        <path d="M31.233165,0.133475403 L39.252532,0.133475403 C46.6629693,0.131290937 53.7705811,3.33574548 59.0112612,9.04166553 C64.2519412,14.7475856 67.1962435,22.4874015 67.1962435,30.5578838 L67.1962435,54.9198204 C67.1962435,58.8231835 64.2907349,61.9874845 60.7066085,61.9874845 L9.78665397,61.9874845 C6.20252755,61.9874845 3.29701902,58.8231835 3.29701902,54.9198204 L3.29701902,30.5578838 C3.29701902,13.7549476 15.8044576,0.133475403 31.233165,0.133475403 Z" id="Path" fill="#BDDCE8" fill-rule="nonzero"></path>
                    </g>
                    <g id="POSTERS" transform="translate(278.882438, 43.260099)">
                        <rect id="Rectangle" fill="#FED4C7" fill-rule="nonzero" x="0.069790227" y="33.1877228" width="69.7856754" height="87.3456288"></rect>
                        <polyline id="Path" stroke="#F3B304" points="6.9213699 54.358436 14.5497451 65.3119789 25.2170296 65.3119789 41.3598125 86.937994 41.3598125 102.286761 29.6365716 111.742903"></polyline>
                        <ellipse id="Oval" stroke="#F3B304" fill="#FFFFFF" fill-rule="nonzero" cx="30.0856565" cy="111.40266" rx="1.4413199" ry="1.56150447"></ellipse>
                        <ellipse id="Oval" stroke="#F3B304" fill="#FFFFFF" fill-rule="nonzero" cx="41.414431" cy="101.961311" rx="1.4413199" ry="1.56150447"></ellipse>
                        <ellipse id="Oval" stroke="#F3B304" fill="#FFFFFF" fill-rule="nonzero" cx="41.414431" cy="87.5642394" rx="1.4413199" ry="1.56150447"></ellipse>
                        <ellipse id="Oval" stroke="#F3B304" fill="#FFFFFF" fill-rule="nonzero" cx="25.5098451" cy="65.612774" rx="1.4413199" ry="1.56150447"></ellipse>
                        <ellipse id="Oval" stroke="#F3B304" fill="#FFFFFF" fill-rule="nonzero" cx="14.6180182" cy="65.612774" rx="1.4413199" ry="1.56150447"></ellipse>
                        <ellipse id="Oval" stroke="#F3B304" fill="#FFFFFF" fill-rule="nonzero" cx="6.98964295" cy="53.5743964" rx="1.4413199" ry="1.56150447"></ellipse>
                        <polyline id="Path" stroke="#59221D" stroke-linecap="round" stroke-linejoin="round" points="56.6848361 41.5968353 47.6636907 49.7971993 47.6636907 68.44485 35.6172906 80.1298345 22.2479106 80.1298345 13.0234632 88.1904849"></polyline>
                        <ellipse id="Oval" stroke="#59221D" fill="#FFFFFF" fill-rule="nonzero" stroke-linejoin="round" cx="13.0917363" cy="88.1904849" rx="1.4413199" ry="1.56150447"></ellipse>
                        <ellipse id="Oval" stroke="#59221D" fill="#FFFFFF" fill-rule="nonzero" stroke-linejoin="round" cx="22.6787894" cy="80.1659956" rx="1.4413199" ry="1.56150447"></ellipse>
                        <ellipse id="Oval" stroke="#59221D" fill="#FFFFFF" fill-rule="nonzero" stroke-linejoin="round" cx="35.9677589" cy="80.1659956" rx="1.4413199" ry="1.56150447"></ellipse>
                        <ellipse id="Oval" stroke="#59221D" fill="#FFFFFF" fill-rule="nonzero" stroke-linejoin="round" cx="47.5150071" cy="68.127618" rx="1.4413199" ry="1.56150447"></ellipse>
                        <ellipse id="Oval" stroke="#59221D" fill="#FFFFFF" fill-rule="nonzero" stroke-linejoin="round" cx="47.5150071" cy="50.1883973" rx="1.4413199" ry="1.56150447"></ellipse>
                        <ellipse id="Oval" stroke="#59221D" fill="#FFFFFF" fill-rule="nonzero" stroke-linejoin="round" cx="56.8835865" cy="40.9837393" rx="1.4413199" ry="1.56150447"></ellipse>
                        <polyline id="Path" stroke="#FFFFFF" stroke-linecap="round" points="29.6365716 43.6382969 29.6365716 56.6431636 49.880289 84.6203926 58.4174543 84.6203926"></polyline>
                        <ellipse id="Oval" stroke="#FFFFFF" fill="#F5BBBB" fill-rule="nonzero" cx="29.5743673" cy="42.2477361" rx="1.4413199" ry="1.56150447"></ellipse>
                        <ellipse id="Oval" stroke="#FFFFFF" fill="#F5BBBB" fill-rule="nonzero" cx="29.5743673" cy="56.646451" rx="1.4413199" ry="1.56150447"></ellipse>
                        <ellipse id="Oval" stroke="#FFFFFF" fill="#F5BBBB" fill-rule="nonzero" cx="49.1823867" cy="84.2620684" rx="1.4413199" ry="1.56150447"></ellipse>
                        <ellipse id="Oval" stroke="#FFFFFF" fill="#F5BBBB" fill-rule="nonzero" cx="60.2942046" cy="84.2620684" rx="1.4413199" ry="1.56150447"></ellipse>
                        <rect id="Rectangle" fill="#FFC200" fill-rule="nonzero" transform="translate(55.239723, 17.072997) rotate(-180.000000) translate(-55.239723, -17.072997) " x="40.6239808" y="9.63201703" width="29.2314848" height="14.8819594"></rect>
                        <line x1="64.650025" y1="14.4151518" x2="46.0585154" y2="14.4151518" id="Path" stroke="#FFFFFF" stroke-linecap="round"></line>
                        <line x1="64.650025" y1="17.9589451" x2="46.1298228" y2="17.9589451" id="Path" stroke="#FFFFFF" stroke-linecap="round"></line>
                        <line x1="58.5479317" y1="20.7926647" x2="52.527766" y2="20.7926647" id="Path" stroke="#FFFFFF" stroke-linecap="round"></line>
                        <rect id="Rectangle" fill="#7EBAD2" fill-rule="nonzero" transform="translate(15.214269, 12.261097) rotate(-180.000000) translate(-15.214269, -12.261097) " x="0.342882419" y="0.00821844456" width="29.7427741" height="24.505758"></rect>
                        <rect id="Rectangle" fill="#FED4C7" fill-rule="nonzero" x="4.20865412" y="5.08392981" width="9.63712004" height="19.4300466"></rect>
                        <line x1="9.98607117" y1="8.15598438" x2="24.1413498" y2="8.15598438" id="Path" stroke="#FFFFFF" stroke-linecap="round"></line>
                        <line x1="9.98607117" y1="11.3595341" x2="24.1413498" y2="11.3595341" id="Path" stroke="#FFFFFF" stroke-linecap="round"></line>
                        <ellipse id="Oval" fill="#FFC200" fill-rule="nonzero" cx="21.8413067" cy="17.6039083" rx="2.94332696" ry="3.18875649"></ellipse>
                    </g>
                    <g id="_4_CHARACTER" transform="translate(372.728592, 61.598408)">
                        <g id="LEGS" transform="translate(0.151702, 125.727110)">
                            <path d="M90.0000681,173.336984 C90.0000681,173.336984 72.690904,192.313044 52.9711999,191.828591 L0.0364084082,16.667493 L50.9444652,14.4907497 L90.0000681,173.336984 Z" id="RIGHT" fill="#59221D" fill-rule="nonzero"></path>
                            <g id="LEFT">
                                <path d="M81.3121117,109.567139 L22.8159358,172.214832 C21.0152366,169.822227 7.94916913,151.782117 8.07659856,128.002721 L47.8512675,83.3127479 L26.664608,58.9912258 C11.9267877,41.9018961 5.08048996,33.2097532 0.0364084082,16.667493 L54.5595167,0 L87.3012948,62.3494413 C95.3892272,77.7437352 92.9312382,97.1221012 81.3121117,109.567139 L81.3121117,109.567139 Z" id="Path" fill="#A74602" fill-rule="nonzero"></path>
                                <path d="M36.2688426,7.48924919 C36.0018477,9.65610567 32.4763001,35.2530247 14.3919404,44.1775073 C12.6792282,41.9381477 11.1349048,39.7844736 9.72711306,37.6390385 C28.3560819,26.8607813 35.137148,6.24516049 35.137148,6.24516049 C35.5042661,6.67358839 35.8814976,7.08828462 36.2688426,7.48924919 Z" id="Path" fill="#59221D" fill-rule="nonzero"></path>
                                <line x1="47.1928821" y1="83.3127479" x2="53.7372935" y2="76.3672726" id="Path" stroke="#59221D" stroke-linecap="round" stroke-linejoin="round"></line>
                            </g>
                        </g>
                        <g id="SHOES" transform="translate(0.000000, 254.090699)" stroke="#592D29" stroke-linecap="round" stroke-linejoin="round">
                            <g id="RIGHT-2" transform="translate(52.792192, 44.655369)">
                                <path d="M55.0965407,24.7021638 L55.0965407,25.1272961 L2.69725624,25.1272961 L0.0136531531,16.3231029 C23.8019969,16.4730526 36.8771665,0.0346037916 36.8771665,0.0346037916 L51.0627925,14.6060957 C53.5865515,17.2574147 55.037499,20.888991 55.0965407,24.7021638 Z" id="Path" fill="#FFFFFF" fill-rule="nonzero"></path>
                                <line x1="1.75367166" y1="22.0327285" x2="54.7749331" y2="22.0327285" id="Path"></line>
                                <path d="M43.7249812,21.633961 C43.7017415,17.7327897 45.3354442,14.0377972 48.1531539,11.618635" id="Path"></path>
                                <path d="M33.802173,8.37411758 L39.7003351,2.27725905 C40.2397733,1.71891754 41.0907567,1.72988685 41.6178446,2.30197604 L41.6178446,2.30197604 C42.1275473,2.85635086 42.1553807,3.74462516 41.6815593,4.33536075" id="Path"></path>
                                <path d="M36.2673256,10.6942194 L42.1639707,4.59736089 C42.7034089,4.03901938 43.5543923,4.04998869 44.0814802,4.62207788 L44.0814802,4.62207788 C44.5948817,5.17470325 44.6228161,6.06619924 44.145195,6.65546259" id="Path"></path>
                            </g>
                            <g id="LEFT-2">
                                <path d="M3.12657206,69.7612439 L0.174456956,69.7826653 L0.10164014,8.11870864 L8.23285131,0.0444905893 C7.86725021,25.8819883 22.8690314,43.785331 22.8690314,43.785331 L7.11784381,67.9222996 C6.06485432,69.0863954 4.62896565,69.7479688 3.12657206,69.7612439 L3.12657206,69.7612439 Z" id="Path" fill="#FFFFFF" fill-rule="nonzero"></path>
                                <path d="M3.25855254,54.721777 C6.7403349,55.6789173 9.6212097,58.3266389 11.0666391,61.8979442" id="Path"></path>
                                <line x1="3.19028677" y1="5.05380138" x2="3.19028677" y2="69.7612439" id="Path"></line>
                                <path d="M14.8106371,43.4755447 L20.1308157,50.1754979 C20.6207714,50.7868634 20.5680737,51.7122557 20.0124884,52.2533732 L20.0124884,52.2533732 C19.477466,52.7794046 18.6588441,52.7657246 18.1389724,52.222065" id="Path"></path>
                                <path d="M12.5563498,46.0345775 L17.8765284,52.7345307 C18.3664841,53.3458962 18.3137864,54.2712885 17.7582011,54.812406 L17.7582011,54.812406 C17.2231787,55.3384373 16.4045568,55.3247574 15.8846851,54.7810978" id="Path"></path>
                            </g>
                        </g>
                        <path d="M62.5011008,75.8234987 L62.5011008,125.270669 C62.5019382,128.741241 65.0918846,131.554467 68.2870036,131.555377 L68.2870036,131.555377 C71.4824696,131.555377 74.0729065,128.741617 74.0729065,125.270669 L74.0729065,97.3305791" id="LINE" stroke="#59221D" stroke-linecap="round" stroke-linejoin="round"></path>
                        <g id="SHIRT" transform="translate(0.000000, 25.540894)">
                            <path d="M84.1383144,61.4497428 L79.6221547,74.2910451 C75.1469546,86.7385232 64.4307464,94.9313829 52.1292555,94.9313829 L64.929845,119.648377 C64.929845,119.648377 45.7850903,118.70254 35.2888497,106.426433 C35.2888497,106.426433 26.1867476,134.092988 0.113776276,142.083168 L0.188110109,116.847118 L0.188110109,43.4837837 C0.188110109,22.4957602 15.8573788,5.48552487 35.1796244,5.49540736 L35.2569923,5.49540736 C47.9894752,5.49540736 58.510935,16.2848117 59.2425482,30.0921163 L59.8675592,41.8821225 L60.0905607,46.1219109 C60.0905607,46.1219109 60.5547679,62.8108252 84.1383144,61.4497428 Z" id="Path" fill="#98C8DB" fill-rule="nonzero"></path>
                            <path d="M3.95182931,26.3268942 L3.95182931,140.722086 C3.73489588,140.811067 3.51644543,140.898401 3.29344393,140.982438 L3.29344393,27.8082661 C3.3359204,27.7110459 3.37687986,27.6138257 3.41783932,27.5166056 C3.52099648,27.2776746 3.62415363,27.0387437 3.73337886,26.8031083 C3.80316164,26.641624 3.87597846,26.485083 3.95182931,26.3268942 Z" id="Path" fill="#CEE4ED" fill-rule="nonzero"></path>
                            <path d="M7.95220316,19.6088153 L7.95220316,138.878198 C7.73526973,138.990249 7.51681928,139.102299 7.2953348,139.207758 L7.2953348,20.5249918 C7.51075121,20.2185011 7.73678675,19.9136582 7.95220316,19.6088153 Z" id="Path" fill="#CEE4ED" fill-rule="nonzero"></path>
                            <path d="M11.952577,15.0658318 L11.952577,136.554801 C11.7361493,136.696512 11.5171931,136.836025 11.2957086,136.973342 L11.2957086,15.7150648 C11.5126421,15.4893163 11.7310925,15.2783979 11.952577,15.0658318 Z" id="Path" fill="#CEE4ED" fill-rule="nonzero"></path>
                            <path d="M15.9544679,11.733981 L15.9544679,133.671152 C15.7375344,133.835931 15.517567,134.015542 15.2975995,134.186913 L15.2975995,12.2151384 C15.51605,12.0525556 15.7350061,11.8921697 15.9544679,11.733981 Z" id="Path" fill="#CEE4ED" fill-rule="nonzero"></path>
                            <path d="M19.9563588,9.26557716 L19.9563588,130.149804 C19.7394253,130.360722 19.5209749,130.57164 19.2979734,130.779263 L19.2979734,9.61985408 C19.4906345,9.5127471 19.6848127,9.40728793 19.8789909,9.30677215 C19.9040106,9.29139713 19.9298449,9.27764149 19.9563588,9.26557716 Z" id="Path" fill="#CEE4ED" fill-rule="nonzero"></path>
                            <path d="M23.9567326,7.48760139 L23.9567326,125.850695 C23.7433389,126.107751 23.5243828,126.36316 23.2998642,126.616921 L23.2998642,7.74465813 C23.5137636,7.65073355 23.7367651,7.56834357 23.9567326,7.48760139 Z" id="Path" fill="#CEE4ED" fill-rule="nonzero"></path>
                            <path d="M27.9571065,6.30283348 L27.9571065,120.569497 C27.7432071,120.884227 27.5232396,121.200604 27.3002381,121.518629 L27.3002381,6.45937444 C27.5186885,6.40499705 27.737139,6.35226747 27.9571065,6.30283348 Z" id="Path" fill="#CEE4ED" fill-rule="nonzero"></path>
                            <path d="M31.9589973,5.65195263 L31.9589973,113.912386 C31.8740444,114.077166 31.7845404,114.241946 31.6950364,114.406726 C31.5676069,114.639066 31.4386605,114.877997 31.305163,115.120224 L31.305163,115.120224 L31.305163,5.72445582 C31.5205794,5.69809102 31.7390299,5.67337403 31.9589973,5.65195263 Z" id="Path" fill="#CEE4ED" fill-rule="nonzero"></path>
                            <path d="M35.9608882,5.50529847 L35.9608882,107.187716 C35.7378867,106.947138 35.5179192,106.693376 35.3040198,106.449502 L35.3040198,5.49541167 C35.5239873,5.49541167 35.7424377,5.49870727 35.9608882,5.50529847 Z" id="Path" fill="#CEE4ED" fill-rule="nonzero"></path>
                            <path d="M39.961262,5.99634275 L39.961262,110.822762 L39.8611389,110.746963 C39.6745458,110.603605 39.4894698,110.456951 39.3043937,110.310297 L39.3043937,5.86451878 C39.5243611,5.90571377 39.7458456,5.95020436 39.961262,5.99634275 Z" id="Path" fill="#CEE4ED" fill-rule="nonzero"></path>
                            <path d="M43.9616359,7.26350065 L43.9616359,113.459242 C43.7416684,113.335657 43.523218,113.207128 43.3047675,113.076952 L43.3047675,6.99820491 C43.526252,7.08553829 43.7447025,7.17122387 43.9616359,7.26350065 Z" id="Path" fill="#CEE4ED" fill-rule="nonzero"></path>
                            <path d="M47.9635268,9.44189172 L47.9635268,115.45967 C47.7450763,115.364098 47.5251089,115.26523 47.3066584,115.166362 L47.3066584,9.01181602 C47.4583601,9.1073884 47.6100618,9.20625638 47.7617635,9.30677215 C47.8300293,9.35126274 47.898295,9.39245773 47.9635268,9.44189172 Z" id="Path" fill="#CEE4ED" fill-rule="nonzero"></path>
                            <path d="M51.9654176,12.8429501 L51.9654176,116.993772 C51.7469672,116.919621 51.5285167,116.84547 51.3085493,116.766375 L51.3085493,12.1739435 C51.460251,12.3189498 51.6028506,12.465604 51.7500012,12.6155538 C51.821301,12.6880569 51.8941178,12.7638557 51.9654176,12.8429501 Z" id="Path" fill="#CEE4ED" fill-rule="nonzero"></path>
                            <path d="M55.9657915,102.341538 L55.9657915,118.160414 C55.7488581,118.106036 55.5304076,118.048363 55.3089231,117.995634 L55.3089231,101.07438 L55.3544336,101.160065 L55.7230688,101.873563 L55.9657915,102.341538 Z" id="Path" fill="#CEE4ED" fill-rule="nonzero"></path>
                            <path d="M55.9657915,18.3564876 L55.9657915,94.6611437 C55.747341,94.6924519 55.5288906,94.7221123 55.3089231,94.7468293 L55.3089231,17.2145624 C55.4768063,17.4891957 55.6401385,17.7693216 55.7989196,18.0549402 C55.8565663,18.1538082 55.9126959,18.254324 55.9657915,18.3564876 Z" id="Path" fill="#CEE4ED" fill-rule="nonzero"></path>
                            <path d="M59.9661653,44.2977967 L59.9661653,93.7845143 C59.7492319,93.8504263 59.5292644,93.9130427 59.309297,93.9723635 L59.309297,44.2977967 L59.9661653,44.2977967 Z" id="Path" fill="#CEE4ED" fill-rule="nonzero"></path>
                            <path d="M59.9661653,110.073013 L59.9661653,119.028804 C59.7522659,118.992553 59.5322985,118.951358 59.309297,118.908515 L59.309297,108.804208 L59.9479611,110.03841 L59.9661653,110.073013 Z" id="Path" fill="#CEE4ED" fill-rule="nonzero"></path>
                            <path d="M63.9680562,55.1419659 L63.9680562,92.2339349 C63.8436608,92.2949035 63.7177484,92.3542243 63.591836,92.4102495 L63.3111878,92.53713 L63.3111878,54.3493743 C63.5159851,54.61467 63.7344356,54.8799657 63.9680562,55.1419659 Z" id="Path" fill="#CEE4ED" fill-rule="nonzero"></path>
                            <path d="M63.9680562,117.794602 L63.9680562,119.577522 C63.7753951,119.559396 63.5554276,119.537974 63.3111878,119.508314 L63.3111878,116.525797 L63.9680562,117.794602 Z" id="Path" fill="#CEE4ED" fill-rule="nonzero"></path>
                            <path d="M67.9699471,58.4161437 L67.9699471,89.8891161 C67.7530136,90.0440092 67.5345632,90.1906634 67.3115617,90.3373176 L67.3115617,58.002546 L67.5042229,58.126131 C67.6589586,58.2282945 67.8106603,58.3222191 67.9699471,58.4161437 Z" id="Path" fill="#CEE4ED" fill-rule="nonzero"></path>
                            <path d="M71.9703209,60.1908239 L71.9703209,86.5226615 C71.7564215,86.740171 71.5349371,86.9527372 71.3134526,87.1620077 L71.3134526,59.9650753 C71.528869,60.0441697 71.7549045,60.1183207 71.9703209,60.1908239 Z" id="Path" fill="#CEE4ED" fill-rule="nonzero"></path>
                            <path d="M75.9722118,61.1333652 L75.9722118,81.6105709 C75.7598294,81.9401308 75.539862,82.2532127 75.3153434,82.5662947 L75.3153434,61.0180193 C75.5307599,61.0559187 75.7492103,61.093818 75.9722118,61.1333652 Z" id="Path" fill="#CEE4ED" fill-rule="nonzero"></path>
                            <path d="M79.9725857,61.5024723 L79.9725857,73.2957741 L79.6221547,74.2844539 C79.5463039,74.4937244 79.470453,74.702995 79.3900511,74.9089699 C79.3657789,74.9732341 79.3415066,75.0374983 79.3157173,75.1017625 L79.3157173,61.4629252 C79.5326507,61.4843465 79.7511012,61.4925855 79.9725857,61.5024723 Z" id="Path" fill="#CEE4ED" fill-rule="nonzero"></path>
                            <path d="M83.9744765,61.4629252 L83.9744765,61.9210134 L83.7651282,62.5109257 L83.3100231,63.7896182 L83.3100231,61.4909377 C83.5330246,61.4826987 83.751475,61.4711642 83.9744765,61.4629252 Z" id="Path" fill="#CEE4ED" fill-rule="nonzero"></path>
                            <polygon id="Path" fill="#CEE4ED" fill-rule="nonzero" points="55.7230688 101.873563 0.188110109 101.873563 0.188110109 101.160065 55.3544336 101.160065"></polygon>
                            <polygon id="Path" fill="#CEE4ED" fill-rule="nonzero" points="53.4581624 97.5003024 0.188110109 97.5003024 0.188110109 96.7868052 53.0880102 96.7868052"></polygon>
                            <path d="M63.591836,92.4102495 L63.3111878,92.53713 C62.8454636,92.7480484 62.3721543,92.9441365 61.895811,93.1253945 L0.188110109,93.1253945 L0.188110109,92.4102495 L63.591836,92.4102495 Z" id="Path" fill="#CEE4ED" fill-rule="nonzero"></path>
                            <path d="M70.3440787,88.0369893 C70.0639362,88.2830607 69.7782314,88.5214424 69.4869641,88.7521344 L0.188110109,88.7521344 L0.188110109,88.0369893 L70.3440787,88.0369893 Z" id="Path" fill="#CEE4ED" fill-rule="nonzero"></path>
                            <path d="M74.4946372,83.6620814 C74.3065271,83.9043079 74.115383,84.1432389 73.9212048,84.3755786 L0.194178177,84.3755786 L0.194178177,83.6620814 L74.4946372,83.6620814 Z" id="Path" fill="#CEE4ED" fill-rule="nonzero"></path>
                            <path d="M77.3678675,79.2888212 C77.235887,79.5294 77.1008725,79.7683309 76.9628239,80.0023185 L0.188110109,80.0023185 L0.188110109,79.2888212 L77.3678675,79.2888212 Z" id="Path" fill="#CEE4ED" fill-rule="nonzero"></path>
                            <path d="M79.3900511,74.9155611 C79.3657789,74.9798253 79.3415066,75.0440895 79.3157173,75.1083537 C79.2504856,75.2830204 79.1807028,75.4560394 79.107886,75.6290583 L0.188110109,75.6290583 L0.188110109,74.9155611 L79.3900511,74.9155611 Z" id="Path" fill="#CEE4ED" fill-rule="nonzero"></path>
                            <polygon id="Path" fill="#CEE4ED" fill-rule="nonzero" points="80.9419595 70.5406532 80.6901347 71.2541504 0.188110109 71.2541504 0.188110109 70.5406532"></polygon>
                            <polygon id="Path" fill="#CEE4ED" fill-rule="nonzero" points="82.4786978 66.167393 82.2283899 66.8808902 0.188110109 66.8808902 0.188110109 66.167393"></polygon>
                            <polygon id="Path" fill="#CEE4ED" fill-rule="nonzero" points="84.016953 61.7941329 83.9744765 61.9177178 83.7651282 62.5076301 0.188110109 62.5076301 0.188110109 61.7941329"></polygon>
                            <path d="M67.5072569,58.1327222 L0.188110109,58.1327222 L0.188110109,57.4192249 L66.4605152,57.4192249 C66.7320612,57.6202565 67.0172604,57.8196402 67.3115617,58.0091372 L67.5072569,58.1327222 Z" id="Path" fill="#CEE4ED" fill-rule="nonzero"></path>
                            <path d="M62.877321,53.759462 L0.188110109,53.759462 L0.188110109,53.0459648 L62.4055287,53.0459648 C62.5541964,53.2832479 62.7089321,53.5205311 62.877321,53.759462 Z" id="Path" fill="#CEE4ED" fill-rule="nonzero"></path>
                            <path d="M60.7307419,49.3862019 L0.188110109,49.3862019 L0.188110109,48.6727046 L60.5289787,48.6727046 C60.5820742,48.9017488 60.651857,49.1390319 60.7307419,49.3862019 Z" id="Path" fill="#CEE4ED" fill-rule="nonzero"></path>
                            <polygon id="Path" fill="#CEE4ED" fill-rule="nonzero" points="60.0313971 45.0112939 0.188110109 45.0112939 0.188110109 44.2977967 59.9965057 44.2977967"></polygon>
                            <path d="M59.8023275,40.6380338 L0.285199198,40.6380338 C0.301886385,40.3991028 0.318573572,40.1618197 0.338294793,39.9245366 L59.7704701,39.9245366 L59.8023275,40.6380338 Z" id="Path" fill="#CEE4ED" fill-rule="nonzero"></path>
                            <path d="M59.5687069,36.2647736 L0.819189185,36.2647736 C0.861665661,36.0258427 0.905659154,35.7885596 0.951169665,35.5512764 L59.5307815,35.5512764 L59.5687069,36.2647736 Z" id="Path" fill="#CEE4ED" fill-rule="nonzero"></path>
                            <path d="M59.3366033,31.8898657 L1.84165865,31.8898657 C1.91144143,31.6509348 1.98425825,31.4120038 2.0601091,31.1763685 L59.315365,31.1763685 L59.315365,31.360922 L59.3366033,31.8898657 Z" id="Path" fill="#CEE4ED" fill-rule="nonzero"></path>
                            <path d="M58.9892064,27.5182534 L3.41783932,27.5182534 C3.52099648,27.2793224 3.62415363,27.0403915 3.73337886,26.8047561 L58.8754301,26.8047561 C58.9163896,27.0403915 58.954315,27.2776746 58.9892064,27.5182534 Z" id="Path" fill="#CEE4ED" fill-rule="nonzero"></path>
                            <path d="M57.9940432,23.1433454 L5.61296293,23.1433454 C5.7525285,22.9044145 5.8951281,22.6654835 6.04076173,22.4298482 L57.7528375,22.4298482 C57.8393075,22.6671313 57.9181924,22.9044145 57.9940432,23.1433454 Z" id="Path" fill="#CEE4ED" fill-rule="nonzero"></path>
                            <path d="M56.1842419,18.7684375 L8.60300346,18.7684375 C8.79111357,18.5278587 8.98326905,18.2900263 9.17946992,18.0549402 L55.7989196,18.0549402 C55.8565663,18.1538082 55.9126959,18.254324 55.9657915,18.3564876 C56.0401253,18.4916071 56.1129421,18.6283745 56.1842419,18.7684375 Z" id="Path" fill="#CEE4ED" fill-rule="nonzero"></path>
                            <path d="M53.3276989,14.3951773 L12.6716431,14.3951773 C12.935604,14.1529508 13.2056331,13.9140198 13.4771791,13.6816801 L52.7330282,13.6816801 C52.9347915,13.9140198 53.1335207,14.1529508 53.3276989,14.3951773 Z" id="Path" fill="#CEE4ED" fill-rule="nonzero"></path>
                            <path d="M48.7781649,10.0202694 L18.5895264,10.0202694 C18.82163,9.88350201 19.0567677,9.75003024 19.2919053,9.61985408 C19.4845665,9.5127471 19.6787446,9.40728793 19.8729228,9.30677215 L47.7572125,9.30677215 C47.8239612,9.35126274 47.892227,9.39575333 47.9574587,9.44189172 C48.2411409,9.62644527 48.5096529,9.81923783 48.7781649,10.0202694 Z" id="Path" fill="#CEE4ED" fill-rule="nonzero"></path>
                            <path d="M12.3803758,136.273027 L11.952577,136.551505 C11.7361493,136.693216 11.5171931,136.83273 11.2957086,136.970046 L11.2957086,136.986524 L0.128946446,136.986524 L0.128946446,136.273027 L12.3803758,136.273027 Z" id="Path" fill="#CEE4ED" fill-rule="nonzero"></path>
                            <path d="M18.0661556,131.903063 C17.7961265,132.141993 17.5215465,132.380924 17.2424153,132.61656 L0.142599599,132.61656 L0.142599599,131.903063 L18.0661556,131.903063 Z" id="Path" fill="#CEE4ED" fill-rule="nonzero"></path>
                            <path d="M22.4897772,127.528155 C22.2728437,127.767086 22.0543933,128.006016 21.8313918,128.241652 L0.151701701,128.241652 L0.151701701,127.528155 L22.4897772,127.528155 Z" id="Path" fill="#CEE4ED" fill-rule="nonzero"></path>
                            <path d="M26.1063457,123.154894 C25.9273377,123.392178 25.7437786,123.631109 25.5602196,123.868392 L0.166871871,123.868392 L0.166871871,123.154894 L26.1063457,123.154894 Z" id="Path" fill="#CEE4ED" fill-rule="nonzero"></path>
                            <path d="M29.1267266,118.781634 C28.9750249,119.01727 28.8233232,119.256201 28.6716215,119.495132 L0.179008007,119.495132 L0.179008007,118.781634 L29.1267266,118.781634 Z" id="Path" fill="#CEE4ED" fill-rule="nonzero"></path>
                            <path d="M64.8479261,119.495132 L63.1792074,119.495132 C62.347882,119.397911 61.2556298,119.249609 59.9722334,119.022213 C59.758334,118.985961 59.5383665,118.944766 59.315365,118.901924 C59.0923635,118.859081 58.9042534,118.824477 58.6933881,118.781634 L64.4732229,118.781634 L64.8479261,119.495132 Z" id="Path" fill="#CEE4ED" fill-rule="nonzero"></path>
                            <path d="M31.6950364,114.406726 C31.5676069,114.639066 31.4386605,114.877997 31.305163,115.120224 L0.188110109,115.120224 L0.188110109,114.406726 L31.6950364,114.406726 Z" id="Path" fill="#CEE4ED" fill-rule="nonzero"></path>
                            <path d="M62.5830197,115.120224 L47.2065353,115.120224 C46.7119877,114.892827 46.2179459,114.654995 45.7244097,114.406726 L62.2128675,114.406726 L62.5830197,115.120224 Z" id="Path" fill="#CEE4ED" fill-rule="nonzero"></path>
                            <path d="M33.8446495,110.031818 C33.7430093,110.260863 33.6337841,110.498146 33.5215248,110.746963 L0.188110109,110.746963 L0.188110109,110.031818 L33.8446495,110.031818 Z" id="Path" fill="#CEE4ED" fill-rule="nonzero"></path>
                            <path d="M60.3181133,110.746963 L39.8611389,110.746963 C39.6745458,110.603605 39.4894698,110.456951 39.3043937,110.310297 L38.9660989,110.031818 L59.9479611,110.031818 L59.9661653,110.066422 L60.3181133,110.746963 Z" id="Path" fill="#CEE4ED" fill-rule="nonzero"></path>
                            <polygon id="Path" fill="#CEE4ED" fill-rule="nonzero" points="58.0532069 106.372056 0.188110109 106.372056 0.188110109 105.65691 57.6830547 105.65691"></polygon>
                            <path d="M22.8417251,7.92097269 L28.1361145,1.07930874 C28.6408893,0.426419019 29.4025477,0.0749146463 30.1856044,0.133471768 L44.4334282,1.19300691 C45.2730409,1.25605625 46.0248373,1.7805753 46.4267885,2.58374978 L50.9778396,11.6960816 C50.9778396,11.6960816 44.6670488,5.52507207 34.1723251,5.74917281 C27.4003612,5.89253138 22.8417251,7.92097269 22.8417251,7.92097269 Z" id="Path" fill="#7EBAD2" fill-rule="nonzero"></path>
                            <path d="M51.1477455,11.5181192 C51.1477455,11.5181192 44.4561834,5.52507207 33.6004097,5.75082061 C26.5902741,5.89417918 21.8738683,7.92262049 21.8738683,7.92262049" id="Path" stroke="#FFFFFF" stroke-linecap="round" stroke-linejoin="round"></path>
                            <path d="M83.7560261,61.8699317 C57.2082284,62.1517054 59.9145868,44.6850296 59.9145868,44.6850296 L46.1946849,59.9650753" id="Path" stroke="#FFFFFF" stroke-linecap="round" stroke-linejoin="round"></path>
                            <path d="M20.2081836,54.1269213 C20.2081836,54.1269213 27.9813787,95.1373578 53.4945708,95.4290183" id="Path" stroke="#FFFFFF" stroke-linecap="round" stroke-linejoin="round"></path>
                        </g>
                        <g id="HEAD" transform="translate(29.885235, 0.000000)">
                            <g id="NECK" transform="translate(0.000000, 12.523277)" fill-rule="nonzero">
                                <path d="M16.232082,10.9710497 L15.2945655,14.3935295 C15.0584167,14.291695 14.8092292,14.2300022 14.5557782,14.2106238 L0.303403402,13.1494408 C0.233620619,13.1494408 0.165354854,13.1494408 0.0970890886,13.1494408 L6.54441138,0.0823899801 L16.232082,10.9710497 Z" id="Path" fill="#FFC200"></path>
                                <path d="M16.232082,10.9710497 L15.2945655,14.3935295 C15.0584167,14.291695 14.8092292,14.2300022 14.5557782,14.2106238 L11.7659839,14.0062966 C10.7784058,12.9566483 10.2762732,11.5247104 10.2975115,9.88679761 L10.3233007,7.75619273 L10.7435145,4.80663144 L16.232082,10.9710497 Z" id="Path" fill="#A74602"></path>
                            </g>
                            <path d="M11.7583988,11.602157 C11.7583988,11.602157 17.483621,12.6567487 20.9181475,9.62479748 C24.8699768,6.14464472 23.6245059,0.474566285 20.1702581,0.0955723769 C16.3397902,-0.324616522 15.6920239,3.65811512 15.9772231,4.06512162 C15.9772231,4.06512162 14.8000179,4.84617863 11.8251476,4.22990158 C9.56479224,3.76357429 7.77016112,3.28571241 5.49311859,5.31250592 C3.11595294,7.42828061 3.5498198,13.147793 7.3848388,14.6588253 C9.71952798,15.5881842 11.7583988,11.602157 11.7583988,11.602157 Z" id="HAIR" fill="#A74602" fill-rule="nonzero"></path>
                            <path d="M12.0011216,11.635113 C18.6759964,12.399692 21.2215509,9.30512435 21.2215509,9.30512435 C22.9843247,11.4472638 22.7385679,18.138978 22.7385679,18.138978 C19.5194579,19.7406392 19.3480349,24.3726039 19.3480349,24.3726039 C18.1034635,24.468992 16.853995,24.4640347 15.610105,24.3577737 C13.0840722,24.14425 11.1448603,21.8366654 11.1788983,19.084815 L11.1940685,17.8918081 L10.88308,17.8918081 C9.82854697,17.9179747 8.84364343,17.3218503 8.30929995,16.3339974 C7.77495647,15.3461446 7.77495647,14.1214557 8.30929995,13.1336028 C8.84364343,12.14575 9.82854697,11.5496256 10.88308,11.5757922 L12.0011216,11.635113 Z" id="HEAD-2" fill="#FFC200" fill-rule="nonzero"></path>
                            <g id="FACE" transform="translate(9.860611, 11.699377)">
                                <path d="M7.58508504,1.09084334 C7.58508504,1.09084334 9.16126572,-0.024716994 10.6358062,0.120289371" id="Path" stroke="#59221D" stroke-linecap="round" stroke-linejoin="round"></path>
                                <ellipse id="Oval" fill="#59221D" fill-rule="nonzero" cx="9.34179074" cy="2.74688194" rx="1" ry="1"></ellipse>
                                <path d="M8.35572968,7.8847211 C8.35572968,7.8847211 8.38607002,8.96402983 10.0532717,9.04971541" id="Path" stroke="#59221D" stroke-linecap="round" stroke-linejoin="round"></path>
                                <path d="M0.0834350376,2.91990089 C0.0830327384,2.54917077 0.218437502,2.19349887 0.459777462,1.9313529 C0.701117423,1.66920693 1.02856035,1.52212888 1.36986636,1.52256586" id="Path" stroke="#59221D" stroke-linecap="round" stroke-linejoin="round"></path>
                            </g>
                            <g id="HEADPHONES" transform="translate(6.978278, 2.636479)" stroke="#59221D" stroke-linecap="round" stroke-linejoin="round">
                                <rect id="Rectangle" fill="#FFFFFF" fill-rule="nonzero" x="0.118327327" y="8.13848223" width="7.37725371" height="8.01324946" rx="3.68862686"></rect>
                                <path d="M4.02768016,7.98194127 L4.02768016,1.15345972 C4.02768016,0.582855493 4.45353332,0.120289371 4.97884982,0.120289371 L4.97884982,0.120289371 C5.50416632,0.120289371 5.93001949,0.582855493 5.93001949,1.15345972" id="Path"></path>
                                <path d="M3.64084082,16.2423607 L3.64084082,21.4098602 C3.64084082,25.8181251 6.04619036,29.8072053 9.7665555,31.5685448 L9.7665555,31.5685448 C19.4026475,36.1329497 25.6315194,46.8222257 25.6315194,58.2414769 L25.6315194,67.7987146" id="Path"></path>
                            </g>
                        </g>
                        <g id="HAND" transform="translate(60.073874, 22.739635)" fill-rule="nonzero">
                            <path d="M24.5195459,63.5918822 C0.935999494,64.9529647 0.321607606,48.102566 0.321607606,48.102566 L20.8331946,12.8742583 C22.4772694,10.028605 25.3526374,8.30079422 28.4455859,8.2999666 L31.1109848,8.2999666 L30.6664988,9.19307398 C30.3326372,9.86504763 30.3487496,10.6782266 30.7089188,11.3339754 C31.069088,11.9897242 31.7202255,12.3913861 32.4232045,12.391453 L34.3316119,12.391453 C35.07152,12.392108 35.7510799,11.9482063 36.0974197,11.2379933 L40.9184998,1.29022709 L42.5341229,6.71807898 C43.0556615,8.46778389 43.0106976,10.3585978 42.4066935,12.0767233 L24.5195459,63.5918822 Z" id="Path" fill="#FFC200"></path>
                            <path d="M40.7683151,1.59342222 L36.1050048,11.2297543 C35.7594333,11.9407572 35.0793872,12.3849764 34.339197,12.3832192 L32.3670749,12.3832192 C31.6724819,12.3821971 31.0283019,11.989104 30.6661686,11.3452828 C30.3040353,10.7014616 30.2760081,9.89946633 30.592165,9.22767777 L34.2330058,1.60990021 C34.6643245,0.700953531 35.5261499,0.128983847 36.4675719,0.126880569 L39.956711,0.126880569 C40.2788156,0.12802755 40.576955,0.311908622 40.7429054,0.611775448 C40.9088558,0.911642275 40.9184916,1.28390082 40.7683151,1.59342222 Z" id="Path" fill="#59221D"></path>
                            <path d="M30.4237761,46.7694961 C30.4237761,46.7694961 32.556702,64.2361719 23.3529598,64.3152663 C-0.719066062,64.498172 0.0182042041,49.0928935 0.0182042041,49.0928935 C0.0182042041,42.066676 5.74190938,38.6409007 5.74190938,38.6409007 C5.74190938,38.6409007 6.08323821,45.2139733 15.3764844,48.1289308 C24.6697306,51.0438883 30.4237761,46.7694961 30.4237761,46.7694961 Z" id="Path" fill="#7EBAD2"></path>
                        </g>
                    </g>
                    <g id="HANDRAIL" transform="translate(9.738752, 0.792437)" stroke="#592D29" stroke-linecap="round" stroke-linejoin="round">
                        <line x1="362.98817" y1="24.0705315" x2="0.119297204" y2="24.0705315" id="Path"></line>
                        <line x1="362.98817" y1="0.0824333269" x2="362.98817" y2="383.895301" id="Path"></line>
                        <line x1="325.081861" y1="24.0705315" x2="362.98817" y2="61.6766152" id="Path"></line>
                        <line x1="322.810684" y1="384.055221" x2="600.193294" y2="384.055221" id="Path"></line>
                    </g>
                    <g id="_3_CHARACTER" transform="translate(291.277213, 189.001393)">
                        <path d="M40.8737828,64.3149701 L15.9077327,64.3149701 C5.36923853,64.3149701 -2.20435724,53.28512 0.7862965,42.2898824 L0.7862965,42.2898824 C4.40402061,28.9833777 15.6395331,19.8536519 28.3945453,19.8560372 L28.3945453,19.8560372 C41.1485581,19.8569246 52.382469,28.9853491 56.0027941,42.2898824 L56.0027941,42.2898824 C58.9873878,53.28512 51.413792,64.3149701 40.8737828,64.3149701 Z" id="T-SHIRT" fill="#FFC200" fill-rule="nonzero"></path>
                        <g id="LEGS-2" transform="translate(1.060516, 55.544822)">
                            <path d="M54.4529264,17.2386733 C54.6832098,25.7698305 49.3397266,33.0615306 43.0296594,33.0615306 L11.4232671,33.0615306 C8.26899094,33.0615306 5.41317417,31.2913484 3.34668395,28.4300484 C1.28019372,25.5687484 3.44476157e-14,21.6146823 3.44476157e-14,17.2469144 C3.44476157e-14,13.7856644 0.805991788,10.5732947 2.17254178,7.96746791 C4.20267147,3.09699466 9.31284121,-0.360958931 15.248698,0.0906517863 C17.063583,0.211208731 18.846657,0.664820616 20.5224902,1.43229822 L33.7031829,1.43229822 C35.3790161,0.664820616 37.1620901,0.211208731 38.9769751,0.0906517863 C43.825046,-0.278548216 48.1231639,1.96137501 50.6426457,5.44899647 C51.5001482,6.53352147 54.2650637,10.3260626 54.4529264,17.2386733 Z" id="SHORTS" fill="#59221D" fill-rule="nonzero"></path>
                            <g id="LEGS-3" transform="translate(3.939058, 2.472321)" fill="#A74602" fill-rule="nonzero">
                                <path d="M42.9781486,47.6960253 L25.3584409,47.6960253 L24.7357668,12.4802787 C24.6100199,5.30889825 30.2140869,-0.524132146 36.7726178,0.171414287 C42.4245757,0.779128567 46.7346865,5.94546927 46.7444937,12.1242644 L42.9781486,47.6960253 Z" id="RIGHT-3"></path>
                                <path d="M0.0333304875,12.1242644 C0.0333304875,5.27758218 5.13744014,-0.308216074 11.5308337,0.25712143 C17.2545874,0.761475005 21.6148211,6.06707683 21.6148211,12.3121608 L21.6148211,47.6976735 L3.51182136,47.6976735 L0.0333304875,12.1242644 Z" id="LEFT-3"></path>
                            </g>
                            <g id="SOCKS" transform="translate(7.423609, 50.105715)" fill-rule="nonzero">
                                <g id="RIGHT-4" transform="translate(21.816319, 0.000000)">
                                    <path d="M17.6303129,0.0626321433 L16.0365096,13.9570787 C14.5896634,14.3460572 6.31309734,16.3766573 0.280279099,13.6834751 L0.0515107534,0.0626321433 L17.6303129,0.0626321433 Z" id="Path" fill="#7EBAD2"></path>
                                    <ellipse id="Oval" fill="#CEE4ED" cx="2.48463634" cy="11.7352858" rx="1.07415071" ry="1.16858394"></ellipse>
                                    <ellipse id="Oval" fill="#CEE4ED" cx="7.60086617" cy="8.97782328" rx="1.07415071" ry="1.16858394"></ellipse>
                                    <ellipse id="Oval" fill="#CEE4ED" cx="3.96481299" cy="7.19940005" rx="1.07415071" ry="1.16858394"></ellipse>
                                    <ellipse id="Oval" fill="#CEE4ED" cx="7.60086617" cy="3.10193931" rx="1.07415071" ry="1.16858394"></ellipse>
                                    <ellipse id="Oval" fill="#CEE4ED" cx="2.12709111" cy="2.40144823" rx="1.07415071" ry="1.16858394"></ellipse>
                                    <ellipse id="Oval" fill="#CEE4ED" cx="10.6490908" cy="11.3759751" rx="1.07415071" ry="1.16858394"></ellipse>
                                    <ellipse id="Oval" fill="#CEE4ED" cx="11.4672027" cy="5.91708933" rx="1.07415071" ry="1.16858394"></ellipse>
                                    <ellipse id="Oval" fill="#CEE4ED" cx="14.8305519" cy="2.63879109" rx="1.07415071" ry="1.16858394"></ellipse>
                                    <ellipse id="Oval" fill="#CEE4ED" cx="14.8305519" cy="8.87563399" rx="1.07415071" ry="1.16858394"></ellipse>
                                    <path d="M15.2577958,13.7790715 C15.2582555,13.9111579 15.2372257,14.0422913 15.1956723,14.1664019 C14.7184403,14.2768322 14.0972812,14.4103376 13.3685555,14.5388983 C13.0584008,14.1457785 13.0231858,13.5774245 13.2820399,13.1425777 C13.5408941,12.7077309 14.0320187,12.5102064 14.488625,12.6573036 C14.9452312,12.8044008 15.258309,13.2610018 15.2577958,13.7790715 L15.2577958,13.7790715 Z" id="Path" fill="#CEE4ED"></path>
                                    <ellipse id="Oval" fill="#CEE4ED" cx="6.37521324" cy="13.7972019" rx="1.07415071" ry="1.16858394"></ellipse>
                                </g>
                                <g id="LEFT-4">
                                    <path d="M18.1575406,13.6043608 C11.4778079,16.459068 1.9346833,14.0642126 1.9346833,14.0642126 L0.0272703989,0.0626321433 L18.1287552,0.0626321433 L18.1575406,13.6043608 Z" id="Path" fill="#7EBAD2"></path>
                                    <ellipse id="Oval" fill="#CEE4ED" cx="3.07852503" cy="11.7352858" rx="1.13172155" ry="1.23121608"></ellipse>
                                    <ellipse id="Oval" fill="#CEE4ED" cx="8.13112393" cy="8.97782328" rx="1.13172155" ry="1.23121608"></ellipse>
                                    <ellipse id="Oval" fill="#CEE4ED" cx="4.63899785" cy="6.61263576" rx="1.13172155" ry="1.23121608"></ellipse>
                                    <ellipse id="Oval" fill="#CEE4ED" cx="8.47048889" cy="3.03765895" rx="1.13172155" ry="1.23121608"></ellipse>
                                    <ellipse id="Oval" fill="#CEE4ED" cx="2.31949893" cy="2.40144823" rx="1.13172155" ry="1.23121608"></ellipse>
                                    <ellipse id="Oval" fill="#CEE4ED" cx="11.4141769" cy="11.9149412" rx="1.13172155" ry="1.23121608"></ellipse>
                                    <ellipse id="Oval" fill="#CEE4ED" cx="12.5458985" cy="5.91708933" rx="1.13172155" ry="1.23121608"></ellipse>
                                    <ellipse id="Oval" fill="#CEE4ED" cx="15.8334966" cy="2.40144823" rx="1.13172155" ry="1.23121608"></ellipse>
                                    <ellipse id="Oval" fill="#CEE4ED" cx="16.0910503" cy="8.37952149" rx="1.13172155" ry="1.23121608"></ellipse>
                                    <ellipse id="Oval" fill="#CEE4ED" cx="15.4092904" cy="13.2203269" rx="1.13172155" ry="1.23121608"></ellipse>
                                    <path d="M8.47200509,14.2619983 C8.4723311,14.5076096 8.40476497,14.7476532 8.27808108,14.9509519 C7.59026102,14.9146912 6.93425642,14.8586519 6.32067245,14.7861305 C6.24625365,14.6209672 6.20788695,14.4393432 6.20855208,14.2554055 C6.20855208,13.5754236 6.7152498,13.0241894 7.34028236,13.0241894 C7.96531491,13.0241894 8.47200509,13.5754236 8.47200509,14.2554055 L8.47200509,14.2619983 Z" id="Path" fill="#CEE4ED"></path>
                                </g>
                            </g>
                            <g id="SHOES-2" transform="translate(1.969529, 63.785893)" stroke="#592D29" stroke-linecap="round" stroke-linejoin="round">
                                <g id="RIGHT-5" transform="translate(27.421901, 0.000000)">
                                    <path d="M0.128776102,0 L0.128776102,9.53656792 C0.127981711,11.0137083 0.734260521,12.4138787 1.78166606,13.3538322 L9.02953207,19.8593341 C9.71620183,20.3755176 10.5310479,20.6521251 11.3656962,20.6521251 L19.0892792,20.6521251 C22.1814394,20.6521251 24.1676335,18.0528912 22.7329075,15.0729197 L15.6532089,0.377441074 C15.6532089,0.377441074 6.76154389,2.96678573 0.128776102,0 Z" id="Path" fill="#FFFFFF" fill-rule="nonzero"></path>
                                    <path d="M23.040457,16.1525001 C22.355667,17.4990912 21.1739497,18.4600001 19.5649962,18.4600001 L11.3626662,18.4600001 C10.5280179,18.4600001 9.71317178,18.1833925 9.02650202,17.667209 L2.17557182,11.5177215 C0.877387435,10.3522466 0.125746839,8.61680745 0.125746839,6.78569826" id="Path"></path>
                                    <path d="M12.7261861,1.16858394 L14.5442127,5.28911968 C14.7839388,5.8353869 14.7493907,6.47723983 14.4526977,6.98933411 C14.1560046,7.50142838 13.6386302,7.81219765 13.0822163,7.81253581 L11.5990096,7.81253581 C10.2974779,7.81274408 9.1012435,7.03443687 8.48563911,5.7868804 L6.3040072,1.39109287" id="Path"></path>
                                </g>
                                <g id="LEFT-5">
                                    <path d="M23.355582,0 L23.355582,9.62557149 C23.3561203,11.1157179 22.744972,12.5282792 21.6890572,13.4774483 L14.3760453,20.0422859 C13.6825087,20.5629414 12.8597904,20.8416698 12.0171558,20.8416698 L4.22842685,20.8416698 C1.1074812,20.8416698 -0.89840814,18.2193608 0.549953044,15.2113697 L7.69479754,0.377441074 C7.69479754,0.377441074 16.6652437,2.99150895 23.355582,0 Z" id="Path" fill="#FFFFFF" fill-rule="nonzero"></path>
                                    <path d="M0.23179839,16.3024876 C0.924163517,17.6622644 2.11648596,18.6363592 3.73907469,18.6363592 L12.0156407,18.6363592 C12.8578316,18.6366217 13.6801162,18.3577856 14.3730152,17.8369751 L21.2860613,11.6314483 C22.5972568,10.4542211 23.3562914,8.70113357 23.3555821,6.85162683" id="Path"></path>
                                    <path d="M10.6430307,1.18012144 L8.81439892,5.33197325 C8.57176286,5.88323548 8.60633172,6.53142592 8.90594149,7.04846122 C9.20555126,7.56549653 9.72821922,7.87892726 10.2900305,7.87846485 L11.7883874,7.87846485 C13.1009259,7.87835285 14.307329,7.09391392 14.9290284,5.83632683 L17.1303555,1.39768572" id="Path"></path>
                                </g>
                            </g>
                        </g>
                        <g id="HAND-2" transform="translate(11.059662, 26.206607)">
                            <g id="BEAR" fill-rule="nonzero">
                                <path d="M16.3622393,19.7307733 C4.67990345,20.7526662 -2.38161483,14.1021215 0.860532586,10.5007733 C3.51788145,7.54387684 9.95066554,12.313809 13.0458558,14.9245805 C13.5745985,16.7771733 14.7441956,18.4797787 16.3622393,19.7307733 Z" id="Path" fill="#FFFFFF"></path>
                                <ellipse id="Oval" fill="#FFFFFF" transform="translate(17.784310, 3.604134) rotate(-75.510000) translate(-17.784310, -3.604134) " cx="17.7843099" cy="3.60413417" rx="2.93589811" ry="2.59493453"></ellipse>
                                <path d="M17.7515146,5.36493754 C17.6525649,5.78114058 17.4551178,6.16188057 17.1788363,6.46924112 C17.1507642,6.46422592 17.1229511,6.45762413 17.09551,6.44946254 C15.7168399,6.06048397 14.901758,4.47160539 15.2774834,2.89096788 C15.3253478,2.68755963 15.3918362,2.48988426 15.4759514,2.30090716 C16.1884796,2.26999188 16.8724409,2.60765655 17.3202337,3.21141043 C17.7680265,3.8151643 17.9268455,4.61381055 17.7484846,5.36493754 L17.7515146,5.36493754 Z" id="Path" fill="#CEE4ED"></path>
                                <ellipse id="Oval" fill="#FFFFFF" transform="translate(29.465153, 6.886878) rotate(-75.510000) translate(-29.465153, -6.886878) " cx="29.4651525" cy="6.88687773" rx="2.93589811" ry="2.59493453"></ellipse>
                                <path d="M32.0078731,7.28840362 C31.9942379,7.38564826 31.9760577,7.48124469 31.9533324,7.57848934 C31.5791219,9.15583042 30.1565161,10.1200358 28.7717858,9.73270542 C28.6486364,9.69759948 28.5281015,9.65241966 28.4112105,9.59755185 C28.4031511,9.3349254 28.4296804,9.07239569 28.4899917,8.81794649 C28.8187515,7.43015005 30.0701598,6.5829679 31.2852076,6.92414826 C31.5449197,6.99531741 31.79005,7.1188739 32.0078731,7.28840362 L32.0078731,7.28840362 Z" id="Path" fill="#CEE4ED"></path>
                                <ellipse id="Oval" fill="#FFFFFF" transform="translate(21.685444, 13.412927) rotate(-75.510000) translate(-21.685444, -13.412927) " cx="21.6854438" cy="13.4129267" rx="8.25411194" ry="9.06090048"></ellipse>
                                <ellipse id="Oval" fill="#59221D" transform="translate(18.162616, 12.031289) rotate(-75.547572) translate(-18.162616, -12.031289) " cx="18.1626159" cy="12.0312886" rx="1" ry="1"></ellipse>
                                <ellipse id="Oval" fill="#59221D" transform="translate(25.198845, 14.823295) rotate(-75.510000) translate(-25.198845, -14.823295) " cx="25.1988452" cy="14.823295" rx="1" ry="1"></ellipse>
                            </g>
                            <g id="HAND-3" transform="translate(3.484551, 17.471072)">
                                <path d="M32.5381309,15.1635715 C36.9316952,14.6196608 39.6769153,9.84313578 38.6618505,5.9022554 C37.3725666,0.903221435 33.3592729,-0.258769645 28.9763138,0.270307145 C23.8918994,0.885091077 11.8565634,1.9020393 0.627219174,0.0626321433 C0.627219174,0.0626321433 -2.11042587,8.86080006 4.93745722,12.7703644 C7.52814511,14.1993662 21.6011859,16.5151073 32.5381309,15.1635715 Z" id="Path" fill="#A74602" fill-rule="nonzero"></path>
                                <path d="M0.704485304,0.43348036 C0.704485304,0.43348036 -2.07255031,9.0964947 5.52528581,13.4329465" id="Path" stroke="#59221D" stroke-linecap="round"></path>
                                <path d="M0.699927954,0.412053574 C0.699927954,0.412053574 0.665094728,3.33104109 4.307208,3.40521074" id="Path" stroke="#59221D" stroke-linecap="round"></path>
                                <path d="M0.303004432,3.33433752 C0.303004432,3.33433752 0.466626825,6.20387861 4.10722507,6.27804826" id="Path" stroke="#59221D" stroke-linecap="round"></path>
                                <path d="M0.316639631,5.6484304 C0.316639631,5.6484304 0.424206204,8.89870899 4.05874436,8.92672863" id="Path" stroke="#59221D" stroke-linecap="round"></path>
                            </g>
                        </g>
                        <g id="HEAD-3" transform="translate(19.543786, 0.000000)">
                            <g id="NECK-2" transform="translate(2.424035, 14.998750)" fill-rule="nonzero">
                                <path d="M12.851933,5.64678218 C12.0853318,8.0235072 9.50070396,9.76731792 6.42975404,9.76731792 C3.35880413,9.76731792 0.769631257,8.01691434 0.00606008863,5.6368929 C0.84437235,5.43141551 1.69429978,5.26659408 2.55584238,5.14242861 L2.55584238,0.136801787 L10.9884557,0.136801787 L10.9884557,5.24626611 C11.6156749,5.35944349 12.236834,5.49294885 12.851933,5.64678218 Z" id="Path" fill="#A74602"></path>
                                <path d="M8.74925297,4.09086788 C10.0748974,3.15303395 10.9884557,1.85424108 10.9884557,0.135153572 L2.55584238,0.135153572 L2.55584238,5.24461789 C2.55584238,5.24461789 6.36309307,5.78193575 8.74925297,4.09086788 Z" id="Path" fill="#59221D"></path>
                            </g>
                            <g id="CAP" fill-rule="nonzero">
                                <path d="M15.0093245,9.62886792 L12.5625637,9.62886792 L7.92205087,3.20083216 L10.5597044,3.20083216 C13.0165702,3.20083216 15.008488,5.36713004 15.0093245,8.03998934 L15.0093245,9.62886792 Z" id="Path" fill="#FFC200"></path>
                                <path d="M3.96178295,8.65147684 L12.1625979,8.64158756 L8.26899094,3.10029109 C7.03121784,1.22132679 5.18895089,0.107133929 3.0633748,0.107133929 L2.91187259,0.107133929 C0.587828598,0.107133929 -0.812051877,3.00634288 0.590858642,5.02375718 C1.02112493,5.64183754 3.96178295,8.65147684 3.96178295,8.65147684 Z" id="Path" stroke="#FFC200" fill="#FFFFFF"></path>
                            </g>
                            <g id="HEAD-4" transform="translate(1.969529, 4.120536)">
                                <path d="M14.9805471,8.01032148 L14.9805471,8.50478577 C14.9805471,9.88659631 13.9508819,11.0067751 12.6807355,11.0067751 L10.5248589,11.0067751 C9.76594955,13.2647844 7.79127561,14.7665366 5.58134163,14.7663522 L4.87837135,14.7663522 C3.86675598,14.7667891 2.89643621,14.3299035 2.18097401,13.551851 C1.46551181,12.7737986 1.06354556,11.7183474 1.06354556,10.6177965 L1.06354556,6.54011433 C1.06392881,5.23910858 1.60161807,4.00713744 2.52808677,3.18450976 C3.45455548,2.36188209 4.67174898,2.03566231 5.84344047,2.29596252 L6.69033785,2.48385895 C8.25559768,2.83313658 9.58632489,3.94597039 10.2991206,5.50173932 L12.6807355,5.50173932 C13.2917327,5.50173702 13.8776171,5.76624352 14.3090885,6.23688441 C14.74056,6.70752531 14.9821491,7.3456111 14.9805471,8.01032148 L14.9805471,8.01032148 Z" id="HEAD-5" fill="#A74602" fill-rule="nonzero"></path>
                                <path d="M11.5671942,8.58060363 C11.5671942,7.60842072 12.291617,6.82031076 13.1852378,6.82031076" id="EAR" stroke="#59221D" stroke-linecap="round"></path>
                                <path d="M11.8595935,5.50833218 C11.0210619,5.50895689 10.2181778,5.87735884 9.63251089,6.53022504 C9.51833338,6.66052714 9.36014419,6.73436775 9.19466948,6.73462184 C9.02968246,6.735924 8.87105744,6.66543116 8.75410663,6.53881785 C8.63715583,6.41220453 8.57158652,6.23998002 8.57199537,6.06048397 L8.57199537,6.04235361 C8.57300954,5.3555308 8.32536357,4.6959018 7.88266029,4.20624289 C-0.587828598,6.49396433 -0.977189292,1.23945715 1.06506058,0.276900002 C2.81642619,-0.547207147 7.22059561,2.29925894 8.83560923,3.40850717 L11.8595935,5.50833218 Z" id="HAIR-2" fill="#59221D" fill-rule="nonzero"></path>
                                <g id="FACE-2" transform="translate(1.212018, 6.098393)">
                                    <path d="M0,0.128560715 C0,0.128560715 1.16353702,-0.201082144 1.93771334,0.721917862 C2.51190674,1.40427858 2.43918568,3.9079161 2.43918568,3.9079161" id="Path" stroke="#59221D" stroke-linecap="round"></path>
                                    <path d="M3.99056837,0.232398216 C3.99056837,0.232398216 5.62527728,-0.107133929 6.47823475,0.637858933" id="Path" stroke="#59221D" stroke-linecap="round"></path>
                                    <ellipse id="Oval" fill="#59221D" fill-rule="nonzero" cx="0.734785747" cy="2.23992323" rx="1" ry="1"></ellipse>
                                    <ellipse id="Oval" fill="#59221D" fill-rule="nonzero" cx="4.85564602" cy="2.23992323" rx="1" ry="1"></ellipse>
                                </g>
                            </g>
                        </g>
                    </g>
                    <g id="_2_CHARACTER" transform="translate(163.788099, 139.777512)">
                        <path d="M76.4135726,19.9967055 C76.4135726,25.6330399 73.0791566,30.7764629 63.6303858,31.2166212 C51.3835459,31.4457673 48.1790619,26.4902771 48.1790619,20.7006291 C48.1790619,15.4995074 51.5648463,11.1803509 56.0112378,10.336302 L56.0112378,6.11276043 C56.0112373,4.52742464 56.5887167,3.00709224 57.6165098,1.88655445 C58.6443028,0.766016654 60.0381241,0.137164409 61.4910415,0.138474724 L62.9777045,0.138474724 C65.996892,0.145749096 68.4408962,2.81839816 68.4408889,6.11276043 L68.4408889,10.2505783 C72.9829875,10.8147755 76.4135726,15.0086324 76.4135726,19.9967055 Z" id="HAIR-3" fill="#FFFFFF" fill-rule="nonzero"></path>
                        <g id="LEGS-4" transform="translate(0.000000, 90.009903)">
                            <path d="M38.4719381,36.0105552 L82.3148995,36.0105552 C91.065664,36.0105552 98.1605517,27.9508773 98.1605517,18.0102232 L98.1605517,18.0102232 C98.1605517,8.06956912 91.0596206,0.0115397311 82.3148995,0.0115397311 L38.4719381,0.0115397311 C29.7196628,0.0115397311 22.6262859,8.06956912 22.6262859,18.0102232 L22.6262859,18.0102232 C22.6262859,27.9508773 29.7196628,36.0105552 38.4719381,36.0105552 Z" id="Path" fill="#59221D" fill-rule="nonzero"></path>
                            <g id="RIGHT_LEG" transform="translate(57.562867, 0.824267)" fill-rule="nonzero">
                                <path d="M41.0252578,21.6765607 L41.0252578,146.224879 C41.027832,148.429368 40.2266005,150.544425 38.7982787,152.103547 C35.4744387,150.037936 31.0446663,147.50414 27.3657797,145.656135 C14.138407,139.017492 6.80782882,139.744495 5.47678195,139.955508 L1.69969095,30.8226218 L1.4111212,22.4843418 C1.14578203,14.672805 4.76601982,7.31348744 10.8790688,3.23764135 C16.9921177,-0.83820474 24.6455608,-0.995559912 30.8949909,2.82611299 C37.1444211,6.64778589 41.0161729,13.8530677 41.0207191,21.6699665 L41.0252578,21.6765607 Z" id="Path" fill="#59221D"></path>
                                <path d="M0.336916517,150.919901 C0.0166914778,151.57217 0.0338281013,152.359992 0.38205276,152.994951 C0.730277418,153.629909 1.3584529,154.018758 2.03660747,154.019189 L33.6025124,154.019189 C35.3767254,154.026039 37.0788544,153.253666 38.3253869,151.87605 C34.9562218,149.764279 31.2063258,147.581621 27.3657797,145.654486 C12.6713849,138.280598 5.70793992,139.991775 5.70793992,139.991775 L0.336916517,150.919901 Z" id="Path" stroke="#F3B304" fill="#FFFFFF"></path>
                            </g>
                            <g id="LEFT_LEG" transform="translate(0.000000, 0.824267)">
                                <path d="M59.5768117,29.3537789 L36.1195658,140.534143 C36.1195658,140.534143 26.7523801,138.821317 12.4523136,146.196854 C8.71752602,148.123989 5.07036696,150.306646 1.79336281,152.418417 C0.429362655,150.878613 -0.2048693,148.736772 0.07554182,146.61723 L16.4968226,20.6182025 C18.0337128,8.82325114 27.2890764,0.0593471886 38.2075417,0.0593471886 C52.3051561,0.0593471886 62.7389923,14.3636682 59.5768117,29.3537789 Z" id="Path" fill="#59221D" fill-rule="nonzero"></path>
                                <path d="M40.4163845,148.81967 C40.9616355,149.959309 40.921675,151.326945 40.3110014,152.426373 C39.7003277,153.5258 38.6076681,154.197192 37.429461,154.197192 L6.55098663,154.197192 C4.8150505,154.200044 3.15412968,153.425304 1.95653314,152.054091 C5.23353729,149.942321 8.88220719,147.758014 12.6169948,145.830879 C26.9095071,138.456991 36.2827361,140.168168 36.2827361,140.168168 L40.4163845,148.81967 Z" id="Path" stroke="#F3B304" fill="#FFFFFF" fill-rule="nonzero"></path>
                                <path d="M38.5263282,0.389053792 C52.6224318,0.389053792 63.0577788,14.6933748 59.8955982,29.6834855 L55.8405133,48.9020834" id="Path" stroke="#FFFFFF" stroke-linecap="round" stroke-linejoin="round"></path>
                            </g>
                        </g>
                        <g id="CANE" transform="translate(84.909006, 99.571394)">
                            <path d="M21.9177037,145.816043 L21.9177037,11.9551614 C21.9181044,8.79903529 20.7693421,5.77202624 18.7241737,3.54015343 C16.6790053,1.30828063 13.9049917,0.0544015896 11.0124865,0.0544015896 L11.0124865,0.0544015896 C4.98886699,0.0544015896 0.105758548,5.38255327 0.105758548,11.9551614" id="Path" stroke="#F3B304"></path>
                            <path d="M4.57481262,145.816043 L4.57481262,145.816043 C4.57481262,139.565737 9.21846679,134.498863 14.9467045,134.498863 L28.887192,134.498863 C31.6382505,134.498426 34.2767699,135.690575 36.2222037,137.813005 C38.1676376,139.935436 39.2605947,142.814254 39.2605947,145.816043 L39.2605947,145.816043" id="Path" stroke="#F3B304"></path>
                            <path d="M41.0615117,145.816043 L37.2980182,145.816043 L37.6439997,144.792303 C37.829788,144.244586 38.3083564,143.880898 38.8436038,143.880665 L39.515926,143.880665 C40.0511734,143.880898 40.5297418,144.244586 40.7155301,144.792303 L41.0615117,145.816043 Z" id="Path" fill="#59221D" fill-rule="nonzero"></path>
                            <path d="M23.7201315,145.816043 L19.956638,145.816043 L20.3026195,144.792303 C20.4884079,144.244586 20.9669762,143.880898 21.5022236,143.880665 L22.1745458,143.880665 C22.7097932,143.880898 23.1883616,144.244586 23.3741499,144.792303 L23.7201315,145.816043 Z" id="Path" fill="#59221D" fill-rule="nonzero"></path>
                            <path d="M6.52983492,145.816043 L2.76634145,145.816043 L3.11232298,144.792303 C3.2981113,144.244586 3.77667969,143.880898 4.31192708,143.880665 L4.98576012,143.880665 C5.52100751,143.880898 5.9995759,144.244586 6.18536422,144.792303 L6.52983492,145.816043 Z" id="Path" fill="#59221D" fill-rule="nonzero"></path>
                        </g>
                        <g id="BLOUSE" transform="translate(18.885455, 24.398289)">
                            <path d="M73.0791566,6.28915346 C79.2106757,7.92431773 83.9376547,13.2545712 85.2338355,19.995057 L67.9256937,29.1427667 L68.3895205,65.9990194 L16.327609,65.9990194 L17.3851944,29.3422392 L0.0362600736,20.1730985 C1.33204312,13.4333024 6.05853369,8.10357832 12.1894281,6.46884356 L37.0109593,0.0395647924 L49.7911244,0.0395647924 L73.0791566,6.28915346 Z" id="Path" fill="#F5BBBB" fill-rule="nonzero"></path>
                            <ellipse id="Oval" stroke="#FFFFFF" stroke-linecap="round" stroke-linejoin="round" cx="43.3111471" cy="15.0346211" rx="1.24190752" ry="1.35509414"></ellipse>
                            <ellipse id="Oval" stroke="#FFFFFF" stroke-linecap="round" stroke-linejoin="round" cx="43.3111471" cy="24.7246982" rx="1.24190752" ry="1.35509414"></ellipse>
                            <ellipse id="Oval" stroke="#FFFFFF" stroke-linecap="round" stroke-linejoin="round" cx="43.3111471" cy="34.4147753" rx="1.24190752" ry="1.35509414"></ellipse>
                            <ellipse id="Oval" stroke="#FFFFFF" stroke-linecap="round" stroke-linejoin="round" cx="43.3111471" cy="44.1032038" rx="1.24190752" ry="1.35509414"></ellipse>
                            <polyline id="Path" stroke="#FFFFFF" stroke-linecap="round" stroke-linejoin="round" points="31.020493 1.68644928 34.3382897 12.7959133 40.6762484 7.16287596"></polyline>
                            <polyline id="Path" stroke="#FFFFFF" stroke-linecap="round" stroke-linejoin="round" points="46.2527455 7.16287596 52.1963759 12.7959133 55.3948166 1.72931114"></polyline>
                            <line x1="17.6677209" y1="25.964395" x2="1.04852046" y2="17.276626" id="Path" stroke="#FFFFFF" stroke-linecap="round" stroke-linejoin="round"></line>
                            <line x1="67.7066224" y1="25.9792318" x2="84.4784173" y2="17.124961" id="Path" stroke="#FFFFFF" stroke-linecap="round" stroke-linejoin="round"></line>
                        </g>
                        <g id="HANDS" transform="translate(9.518269, 44.345538)">
                            <g id="RIGHT_HAND" transform="translate(9.971520, 0.000000)">
                                <path d="M2.94310931,54.8961632 L77.1765449,54.8763671 C78.3624583,54.8753022 79.5433992,54.7091064 80.6907504,54.3818072 C84.0036261,53.7731668 86.9580253,51.7501658 88.9011134,48.7598274 C90.8442016,45.769489 91.6160212,42.0579817 91.0460231,38.4454385 L84.6295009,0.0346191934 L67.3213591,9.18232891 L67.5404304,25.961098 L20.0941241,33.6399648 C18.5435646,33.9599256 17.0424481,34.5182973 15.6356459,35.298389 L1.27212425,49.9703328 C-0.423034192,51.1935443 -0.710093108,54.9043922 2.94310931,54.8961632 Z" id="Path" fill="#A74602" fill-rule="nonzero"></path>
                                <line x1="72.6954042" y1="25.1500197" x2="64.3737173" y2="26.4160931" id="Path" stroke="#59221D" stroke-linecap="round"></line>
                            </g>
                            <g id="LEFT_HAND" transform="translate(0.000000, 0.164853)">
                                <path d="M9.40344575,0.0609957217 L26.7523801,9.2317849 L26.3263243,26.211675 L87.7100963,35.5473175 C90.4076103,35.9575511 92.764424,37.746046 94.0556092,40.3626824 L103.199191,64.210361 L101.865123,64.210361 C99.8009591,64.210361 97.9050251,62.9682568 96.9337525,60.9808849 L95.747746,58.5509472 L82.0580574,60.1731037 C79.4896355,60.5127015 77.0541672,58.6102944 76.1370895,55.9808842 L75.7095228,54.7527271 L13.8347289,54.7527271 C10.8955887,54.7601444 8.03101184,53.743672 5.65808232,51.851309 C1.07722635,48.204754 -0.888371803,41.7952576 0.584693687,35.8160283 L9.40344575,0.0609957217 Z" id="Path" fill="#A74602" fill-rule="nonzero"></path>
                                <path d="M74.2681849,49.7675633 L76.1370895,55.9841813 C77.0541672,58.6218341 79.4971897,60.5176471 82.0580574,60.1764008 L95.747746,58.5542443 L96.9337525,60.9841819 C97.9046202,62.9721919 99.8006337,64.214495 101.865123,64.2153066 L103.199191,64.2153066 L94.0556092,40.367628 C92.7645957,37.7505407 90.4078173,35.9614602 87.7100963,35.5506145 L16.5013552,24.7279953" id="Path" stroke="#59221D" stroke-linecap="round"></path>
                                <line x1="95.7885386" y1="58.6498592" x2="91.4977632" y2="48.7767949" id="Path" stroke="#59221D" stroke-linecap="round"></line>
                                <line x1="90.1108154" y1="58.7009637" x2="85.9832103" y2="49.3636727" id="Path" stroke="#59221D" stroke-linecap="round"></line>
                                <line x1="84.7307269" y1="59.4345609" x2="80.6031219" y2="50.0972699" id="Path" stroke="#59221D" stroke-linecap="round"></line>
                            </g>
                        </g>
                        <g id="NECK-3" transform="translate(55.749863, 16.155624)" fill-rule="nonzero">
                            <path d="M12.9252054,8.28552695 L11.3765981,0.151665038 L1.79487364,0.151665038 L0.15108364,8.28552695 C0.15108364,8.28552695 -1.04247712,15.2093656 6.54041077,15.2093656 C14.1232987,15.2093656 12.9252054,8.28552695 12.9252054,8.28552695 Z" id="Path" fill="#A74602"></path>
                            <path d="M11.4445857,0.511045236 C11.3863732,4.0200707 8.99291404,6.95916746 5.80614428,7.43488391 L0.15108364,8.28552695 L1.79940615,0.150016505 L11.3811306,0.150016505 L11.4445857,0.511045236 Z" id="Path" fill="#59221D"></path>
                        </g>
                        <g id="HEAD-6" transform="translate(53.634692, 4.945599)">
                            <path d="M17.3051201,8.33168587 L17.3051201,8.78668099 C17.3071275,9.51607629 17.0429844,10.2163482 16.5710109,10.7328836 C16.0990374,11.249419 15.4580518,11.5397344 14.7895775,11.5397311 L13.648896,11.5397311 C13.2198185,13.9482379 11.2149386,15.7698668 8.81421955,15.7698668 L8.5256498,15.7698668 C6.11737658,15.7698668 4.11249668,13.9482379 3.68341914,11.5397311 L2.60921446,11.5397311 C1.21991864,11.5397311 0.0936718568,10.310839 0.0936718568,8.79492365 L0.0936718568,8.33992854 C0.0945053106,6.82439008 1.22026402,5.59603048 2.60921446,5.59512106 C2.97007318,5.59474988 3.3198556,5.73109913 3.5988123,5.98087779 L3.5988123,4.6834823 C3.5988123,3.45367667 4.70776622,2.56017178 5.8318285,2.88987838 C6.16099667,2.98590836 6.5003376,3.03413192 6.84106722,3.03330075 C8.6087458,3.03330075 10.0606596,1.76393033 10.2283624,0.13682824 L10.2449816,0.13682824 C12.1758305,0.13682824 13.7410571,1.78536126 13.7410571,3.82294807 L13.7410571,5.99406605 C14.0421541,5.73453022 14.4149311,5.59391038 14.7986425,5.59512106 C15.4659288,5.59468337 16.106,5.88372706 16.5778427,6.39857322 C17.0496855,6.91341938 17.3145863,7.61182624 17.3141856,8.33992854 L17.3051201,8.33168587 Z" id="Path" fill="#A74602" fill-rule="nonzero"></path>
                            <g id="EARS" transform="translate(1.661920, 7.253545)" stroke="#59221D" stroke-linecap="round">
                                <path d="M1.70271262,1.81338632 C1.70187875,0.824360539 0.966849503,0.0230794623 0.060433456,0.0230794623" id="Path"></path>
                                <path d="M12.1425921,1.81338632 C12.143426,0.824360539 12.8784553,0.0230794623 13.7848713,0.0230794623" id="Path"></path>
                            </g>
                            <g id="FACE-3" transform="translate(4.683593, 4.121333)">
                                <path d="M5.62635475,0.286844745 C5.62635475,0.286844745 7.03596511,-0.250577019 8.01347626,0.722057462" id="Path" stroke="#FFFFFF" stroke-linecap="round" stroke-linejoin="round"></path>
                                <ellipse id="Oval" fill="#59221D" fill-rule="nonzero" cx="6.35608873" cy="2.48928486" rx="1" ry="1"></ellipse>
                                <ellipse id="Oval" fill="#59221D" fill-rule="nonzero" cx="1.39903451" cy="2.48928486" rx="1" ry="1"></ellipse>
                                <path d="M4.70474455,4.76261189 C4.22235724,4.99908886 3.67458409,5.02155422 3.17728895,4.82525614 C3.17728895,4.82525614 3.48852125,1.46554585 2.57295439,0.451698047" id="Path" stroke="#59221D" stroke-linecap="round"></path>
                                <path d="M0.0513684376,0.723705995 C1.02736875,-0.250577019 2.43697911,0.283547679 2.43697911,0.283547679" id="Path" stroke="#FFFFFF" stroke-linecap="round" stroke-linejoin="round"></path>
                                <path d="M2.73763556,7.06066692 C3.63347058,7.56695233 4.72144239,7.42794274 5.48584697,6.70952938" id="Path" stroke="#59221D" stroke-linecap="round"></path>
                                <line x1="5.28339489" y1="6.21991508" x2="5.89075112" y2="7.40356178" id="Path" stroke="#59221D" stroke-linecap="round"></line>
                            </g>
                        </g>
                    </g>
                    <g id="_1_CHARACTER" transform="translate(0.000000, 18.165572)">
                        <g id="SHOES-3" transform="translate(0.000000, 328.628716)">
                            <g id="RIGHT-6" transform="translate(82.598688, 9.712533)">
                                <path d="M38.9502068,28.9686219 L4.39515952,28.9686219 C3.07856459,28.9686219 1.83411697,28.3135379 1.01601059,27.1901736 C0.197904207,26.0668094 -0.10426403,24.598059 0.19550882,23.2019574 L2.40218201,12.9510428 L25.0190667,12.9510428 C27.5511722,12.9512124 29.9071285,14.3623013 31.2632244,16.6909515 L31.4526709,17.0210405 C32.3179935,18.5059492 33.8206372,19.4057014 35.4355948,19.4059337 L38.53494,19.4059337 C38.828961,19.8636571 39.1320755,20.3164292 39.4442834,20.76425 L41.4145273,23.6195201 C42.1126658,24.6339839 42.2239581,25.9911468 41.7019297,27.1242699 C41.1799013,28.257393 40.114337,28.9715876 38.9502068,28.9686219 Z" id="Path" stroke="#592D29" stroke-linecap="round" stroke-linejoin="round"></path>
                                <path d="M38.9502068,28.9686127 L4.39515952,28.9686127 C3.07856459,28.9684881 1.83411697,28.3135379 1.01601059,27.1901736 C0.197904207,26.0668094 -0.10426403,24.598059 0.19550882,23.2019574 L0.575917455,21.4293794 C0.674132566,23.9454283 2.5751945,25.9305302 4.8877205,25.9317937 L39.4427678,25.9317937 C40.4026223,25.9391236 41.3084778,25.4489528 41.8828391,24.6114376 C42.1779248,25.6290243 42.0099959,26.7388385 41.4307037,27.5995251 C40.8514115,28.4602117 39.930123,28.9687085 38.9502068,28.9686127 Z" id="Path" fill="#A74602" fill-rule="nonzero"></path>
                                <path d="M38.9502068,28.9686127 L4.39515952,28.9686127 C3.07856459,28.9684881 1.83411697,28.3135379 1.01601059,27.1901736 C0.197904207,26.0668094 -0.10426403,24.598059 0.19550882,23.2019574 L0.575917455,21.4293794 C0.674132566,23.9454283 2.5751945,25.9305302 4.8877205,25.9317937 L39.4427678,25.9317937 C40.4026223,25.9391236 41.3084778,25.4489528 41.8828391,24.6114376 C42.1779248,25.6290243 42.0099959,26.7388385 41.4307037,27.5995251 C40.8514115,28.4602117 39.930123,28.9687085 38.9502068,28.9686127 Z" id="Path" stroke="#592D29" stroke-linecap="round" stroke-linejoin="round"></path>
                                <path d="M25.3464303,12.9510428 C27.8789515,12.9510428 29.9067872,14.3621734 31.2571621,16.6909515 L31.4466086,17.0210405 C32.3119312,18.5059492 33.8145749,19.4057014 35.4295325,19.4059337 L38.5288777,19.4059337 C36.1494293,15.6940826 31.0752934,7.78514961 30.5509054,0.115531158 L25.3979598,7.4187508 L25.3464303,12.9510428 Z" id="Path" fill="#7EBAD2" fill-rule="nonzero"></path>
                                <path d="M25.3464303,12.9510428 C27.8789515,12.9510428 29.9067872,14.3621734 31.2571621,16.6909515 L31.4466086,17.0210405 C32.3119312,18.5059492 33.8145749,19.4057014 35.4295325,19.4059337 L38.5288777,19.4059337 C36.1494293,15.6940826 31.0752934,7.78514961 30.5509054,0.115531158 L25.3979598,7.4187508 L25.3464303,12.9510428 Z" id="Path" stroke="#59221D" stroke-linecap="round" stroke-linejoin="round"></path>
                                <rect id="Rectangle" stroke="#59221D" fill="#FFFFFF" fill-rule="nonzero" stroke-linecap="round" stroke-linejoin="round" x="2.40975988" y="7.41544991" width="22.9897154" height="5.53559292"></rect>
                                <line x1="6.1441299" y1="7.41049857" x2="6.1441299" y2="12.9510428" id="Path" stroke="#59221D" stroke-linecap="round" stroke-linejoin="round"></line>
                                <line x1="9.96034082" y1="7.41049857" x2="9.96034082" y2="12.9510428" id="Path" stroke="#59221D" stroke-linecap="round" stroke-linejoin="round"></line>
                                <line x1="13.7750362" y1="7.41049857" x2="13.7750362" y2="12.9510428" id="Path" stroke="#59221D" stroke-linecap="round" stroke-linejoin="round"></line>
                                <line x1="17.5912471" y1="7.41049857" x2="17.5912471" y2="12.9510428" id="Path" stroke="#59221D" stroke-linecap="round" stroke-linejoin="round"></line>
                                <line x1="21.407458" y1="7.41049857" x2="21.407458" y2="12.9510428" id="Path" stroke="#59221D" stroke-linecap="round" stroke-linejoin="round"></line>
                            </g>
                            <g id="LEFT-6">
                                <path d="M37.2679216,38.6811459 L25.8829429,38.6811459 C24.5189278,38.6811459 22.6184002,38.6811459 21.177091,37.294772 L1.4746518,20.4800372 C-0.96390395,18.4021268 0.227335837,16.2268401 1.63681803,14.5879481 L9.10101136,5.81253144 C9.10101136,5.81253144 21.6499496,14.1802882 31.3890169,13.7016591 C34.1549362,13.5663226 36.6935197,12.8681843 38.4409745,9.30982464 C36.0994154,14.1406775 36.982994,26.8672598 40.2111629,33.2412788 C40.7847711,34.376707 40.7660802,35.7573778 40.1619862,36.8738989 C39.5578922,37.99042 38.4579284,38.6773107 37.2679216,38.6811459 L37.2679216,38.6811459 Z" id="Path" stroke="#59221D" fill="#FFFFFF" fill-rule="nonzero" stroke-linecap="round" stroke-linejoin="round"></path>
                                <path d="M37.2679216,38.681146 L25.8829429,38.681146 C24.5189278,38.681146 22.6199158,38.681146 21.177091,37.294772 L1.4746518,20.4800372 C-0.816893442,18.5275606 0.0954810517,16.4892609 1.38371746,14.89163 C1.40038876,15.7300561 1.7914064,16.5932389 2.78713737,17.4415677 L22.4895766,34.2563026 C23.9324014,35.6443269 25.8374757,35.6443269 27.196944,35.6443269 L38.5804072,35.6443269 C39.3253897,35.6491915 40.050252,35.3812246 40.6385543,34.8834717 C40.6697879,35.8786705 40.3285549,36.8450151 39.6930672,37.5610158 C39.0575794,38.2770166 38.1823272,38.681146 37.2679216,38.681146 Z" id="Path" fill="#A74602" fill-rule="nonzero"></path>
                                <path d="M37.2679216,38.681146 L25.8829429,38.681146 C24.5189278,38.681146 22.6199158,38.681146 21.177091,37.294772 L1.4746518,20.4800372 C-0.816893442,18.5275606 0.0954810517,16.4892609 1.38371746,14.89163 C1.40038876,15.7300561 1.7914064,16.5932389 2.78713737,17.4415677 L22.4895766,34.2563026 C23.9324014,35.6443269 25.8374757,35.6443269 27.196944,35.6443269 L38.5804072,35.6443269 C39.3253897,35.6491915 40.050252,35.3812246 40.6385543,34.8834717 C40.6697879,35.8786705 40.3285549,36.8450151 39.6930672,37.5610158 C39.0575794,38.2770166 38.1823272,38.681146 37.2679216,38.681146 Z" id="Path" stroke="#59221D" stroke-linecap="round" stroke-linejoin="round"></path>
                                <polygon id="Rectangle" stroke="#59221D" fill="#FFFFFF" fill-rule="nonzero" stroke-linecap="round" stroke-linejoin="round" transform="translate(20.216970, 9.720768) rotate(30.590000) translate(-20.216970, -9.720768) " points="8.3581174 6.56342623 31.8776566 7.45966617 32.0758231 12.8781104 8.55628397 11.9818704"></polygon>
                                <line x1="14.8238122" y1="3.02658008" x2="12.2352148" y2="7.79636647" id="Path" stroke="#59221D" stroke-linecap="round" stroke-linejoin="round"></line>
                                <line x1="18.1080572" y1="5.14245072" x2="15.5194598" y2="9.91058666" id="Path" stroke="#59221D" stroke-linecap="round" stroke-linejoin="round"></line>
                                <line x1="21.3923023" y1="7.25667091" x2="18.8037049" y2="12.0248069" id="Path" stroke="#59221D" stroke-linecap="round" stroke-linejoin="round"></line>
                                <line x1="24.6780629" y1="9.37089111" x2="22.08795" y2="14.1406775" id="Path" stroke="#59221D" stroke-linecap="round" stroke-linejoin="round"></line>
                                <line x1="27.962308" y1="11.4851113" x2="25.372195" y2="16.2548977" id="Path" stroke="#59221D" stroke-linecap="round" stroke-linejoin="round"></line>
                                <path d="M37.8893062,25.7020456 L35.4189235,25.7020456 C34.273817,25.7024046 33.2921962,24.8112435 33.0864578,23.5845245 L32.975821,22.9243464 C32.7511676,21.5821417 31.9904096,20.4180663 30.899487,19.7472396 L28.8079973,18.4598924 L31.3965947,13.6950573 C34.1609985,13.5580704 36.7010976,12.8615825 38.4485524,9.30322286 C36.8496237,12.607414 36.752627,19.5805446 37.8893062,25.7020456 Z" id="Path" fill="#7EBAD2" fill-rule="nonzero"></path>
                                <path d="M37.8893062,25.7020456 L35.4189235,25.7020456 C34.273817,25.7024046 33.2921962,24.8112435 33.0864578,23.5845245 L32.975821,22.9243464 C32.7511676,21.5821417 31.9904096,20.4180663 30.899487,19.7472396 L28.8079973,18.4598924 L31.3965947,13.6950573 C34.1609985,13.5580704 36.7010976,12.8615825 38.4485524,9.30322286 C36.8496237,12.607414 36.752627,19.5805446 37.8893062,25.7020456 Z" id="Path" stroke="#59221D" stroke-linecap="round" stroke-linejoin="round"></path>
                            </g>
                        </g>
                        <g id="RIGHT_ARM" transform="translate(163.227131, 0.000000)" stroke="#59221D" stroke-linecap="round" stroke-linejoin="round">
                            <path d="M0.401626646,16.9649254 L4.85134677,5.54384515 C6.15391812,2.19883522 9.16703887,0.0264071219 12.5034711,0.0264071219 L26.9968885,0.0264071219 C29.2731026,0.0268621051 31.2403214,1.75732736 31.7194116,4.18057748 L32.2922979,7.096914 L28.8064817,7.096914 C27.8054328,7.09815323 26.9055775,7.76189568 26.5331234,8.77376624 L23.7808442,16.2436808 C22.1178997,20.7570109 18.1012843,23.7152498 13.6356035,23.7152498 L4.51034301,23.7152498 C3.01382921,23.7173165 1.61623486,22.9014265 0.789428507,21.5430441 C-0.0373778495,20.1846617 -0.183038194,18.4650971 0.401626646,16.9649254 Z" id="Path" fill="#FFFFFF" fill-rule="nonzero"></path>
                            <path d="M10.4438084,5.54384515 C11.7472417,2.19886848 14.7607075,0.0264888992 18.0974482,0.0264071219" id="Path"></path>
                            <path d="M16.0377855,5.54384515 C17.3408955,2.19857567 20.3545635,0.026050344 23.6914254,0.0264071219" id="Path"></path>
                            <path d="M21.6317627,5.54384515 C22.7519072,2.6686089 25.1537318,0.625061299 27.9865572,0.136986945" id="Path"></path>
                        </g>
                        <g id="HEAD-7" transform="translate(72.747468, 33.338991)">
                            <polygon id="NECK-4" stroke="#59221D" fill="#FFFFFF" fill-rule="nonzero" stroke-linecap="round" stroke-linejoin="round" points="0.0136401502 25.9169397 2.79471523 18.2374185 15.0844906 18.2011087 15.0844906 25.9169397"></polygon>
                            <path d="M6.85038657,19.5643764 C10.5286804,23.1953557 17.0577657,20.1997978 17.0577657,20.1997978 C16.9592535,18.839831 16.8258831,18.4371224 16.687966,16.5605663 C16.6409833,15.9119414 18.3444865,15.7353437 18.2975038,15.0933206 C18.0595589,11.8386428 16.0908306,7.00613952 16.068097,6.71236029 C13.1612294,11.2824428 6.48361808,10.2327597 6.48361808,10.2327597 L6.85038657,19.5643764 Z" id="FACE-4" stroke="#59221D" fill="#FFFFFF" fill-rule="nonzero" stroke-linecap="round" stroke-linejoin="round"></path>
                            <g id="EYE" transform="translate(12.579250, 10.232760)">
                                <path d="M0.0651696067,1.4705466 C0.0651696067,1.4705466 0.733536969,0.275624334 2.60678427,0.0643673595" id="Path" stroke="#59221D" stroke-linecap="round" stroke-linejoin="round"></path>
                                <ellipse id="Oval" fill="#59221D" fill-rule="nonzero" cx="1.83838914" cy="2.81730981" rx="1" ry="1"></ellipse>
                            </g>
                            <path d="M17.495766,20.5430904 C17.5448235,21.0077592 17.4186447,21.4742184 17.1461047,21.8357218 C16.8735647,22.1972251 16.4779918,22.4228298 16.0499101,22.4609076 C13.5628561,22.6771159 7.90067813,22.7909966 6.58213028,19.7756334 C6.50635167,19.6105889 6.43966649,19.592434 6.3790436,19.410885 C4.10568522,19.4191372 2.18393961,20.0314524 1.10485217,16.3080482 C0.425875802,13.9644161 0.0772941847,10.0066487 0.630478056,8.75231045 C1.26853397,7.30321964 16.3272598,-0.513288431 17.2305409,0.0495133535 C18.133822,0.612315138 18.4429987,4.41494069 16.3651491,7.18933893 C14.4176388,9.78218821 10.9606185,10.8533271 7.53694079,10.7394464 C8.1098271,12.7199805 9.37987665,15.9333972 11.9730208,16.3030969 C15.7619514,16.8394915 16.9744092,15.606609 16.9744092,15.606609 L17.495766,20.5430904 Z" id="HAIR-4" fill="#59221D" fill-rule="nonzero"></path>
                            <g id="EAR-2" transform="translate(1.970244, 13.368605)" stroke="#59221D" stroke-linecap="round" stroke-linejoin="round">
                                <path d="M5.35907944,2.02839705 L5.34390775,6.24858521 L2.86291598,6.24858521 C1.29348953,6.24858521 0.0212180115,4.8630925 0.0212180115,3.15400062 C0.0212180115,1.44490874 1.29348953,0.0594160242 2.86291598,0.0594160242 L3.56007921,0.0594160242 C4.03865461,0.0598500984 4.49738095,0.26775221 4.83493079,0.637199146 C5.17248062,1.00664608 5.36107785,1.507237 5.35907944,2.02839705 L5.35907944,2.02839705 Z" id="Path" fill="#FFFFFF" fill-rule="nonzero"></path>
                                <path d="M2.39005744,1.76267538 C3.2548559,1.76267538 3.9568513,2.52418369 3.96019029,3.46593474" id="Path"></path>
                            </g>
                        </g>
                        <g id="SHIRT-2" transform="translate(12.579250, 18.980119)" fill-rule="nonzero">
                            <path d="M30.2250574,142.682631 L29.9052716,167.825512 C29.800936,170.654361 28.6674021,173.321782 26.7547378,175.239315 C24.8420735,177.156848 22.3074458,178.166926 19.7100171,178.046718 L9.48899785,177.60935 C6.68180909,177.478856 4.06155527,176.040663 2.29537938,173.660951 C0.529203486,171.28124 -0.212482239,168.189619 0.259162855,165.173246 L15.3936673,68.3927952 C17.4229359,55.0612408 28.0111526,45.2855081 40.4203119,45.2865636 L125.075631,45.2865636 C129.301459,45.2865991 133.063642,42.3720101 134.449445,38.024605 L144.030893,7.94689324 C145.51894,3.27412692 149.561778,0.14028658 154.103386,0.14028658 L166.737197,0.14028658 C169.26514,0.14028658 171.646234,1.43337394 173.164336,3.63460969 C174.682437,5.83584545 175.160407,8.6869082 174.45449,11.3303057 L160.583973,63.3688403 C157.802411,73.8062137 149.023055,80.9869542 139.043145,80.9873419 L110.459452,80.9873419 C107.882258,80.9869041 105.410481,82.101492 103.587987,84.0858625 C101.765493,86.0702331 100.741603,88.7618029 100.741603,91.5683455 L100.741603,142.984662 L30.2250574,142.682631 Z" id="Path" fill="#FFC200"></path>
                            <path d="M160.408167,63.9894076 C157.436554,74.1112014 148.796723,80.9795539 139.038598,80.9774397 L136.863752,80.9774397 C136.485472,79.5701833 136.293586,78.1113312 136.293896,76.6450208 C136.293896,67.8976617 143.035162,60.800663 151.348076,60.800663 C154.602343,60.7894672 157.775479,61.9062385 160.408167,63.9894076 Z" id="Path" fill="#A74602"></path>
                            <path d="M24.2567338,115.156507 C24.2567338,123.988039 18.2565833,131.147673 10.8514973,131.147673 C9.09787022,131.148975 7.36423754,130.742132 5.76675241,129.954398 L10.5817254,99.1686441 L10.8514973,99.1686441 C18.2565833,99.1653444 24.2567338,106.324975 24.2567338,115.156507 Z" id="Path" fill="#A74602"></path>
                            <ellipse id="Oval" fill="#59221D" transform="translate(14.077063, 173.030617) rotate(-87.030000) translate(-14.077063, -173.030617) " cx="14.0770627" cy="173.030617" rx="6.1649465" ry="11.6014753"></ellipse>
                            <path d="M56.3520074,45.2799618 L59.8954153,39.7757273 L75.7119273,39.7757273 C75.7119273,39.7757273 80.5617585,45.288214 80.017668,45.288214 L56.3520074,45.2799618 Z" id="Path" fill="#A74602"></path>
                        </g>
                        <g id="LEFT_ARM" transform="translate(4.243602, 190.296322)" stroke="#59221D" stroke-linecap="round" stroke-linejoin="round">
                            <path d="M31.5542142,11.2411817 L30.2781024,18.4222684 C29.9923586,20.0500043 28.6853878,21.2274135 27.1636014,21.2280251 L24.7750596,21.2280251 L23.6429271,25.3095759 C23.001747,27.6158486 21.0497868,29.1930732 18.8370475,29.1930732 L3.48581617,29.1930732 C2.56748828,29.1917612 1.68727374,28.7931206 1.03891291,28.0848944 C0.39055209,27.3766683 0.027186801,26.4169053 0.0287905514,25.4168548 L0.0287905514,25.4168548 C0.0296319752,23.84031 1.20302486,22.5624953 2.65073586,22.5615847 L4.15266796,22.5615847 L9.64964851,6.22217809 C10.8934819,2.52546517 14.1428952,0.0848350295 17.75796,0.132035609 L23.2897988,0.193102079 C25.8163351,0.226466784 28.1990623,1.478821 29.7948833,3.61215485 C31.3907043,5.7454887 32.0351241,8.53990123 31.5542142,11.2411817 L31.5542142,11.2411817 Z" id="Path" fill="#FFFFFF" fill-rule="nonzero"></path>
                            <path d="M8.77364775,29.1930732 C7.85453177,29.1930732 6.97314869,28.7950138 6.3238044,28.086645 C5.67446011,27.3782763 5.31047107,26.4177626 5.31207542,25.4168548 L5.31207542,25.4168548 C5.31207542,23.8399327 6.48596325,22.5615847 7.93402072,22.5615847 L9.43595282,22.5615847 L11.5880654,16.1611586" id="Path"></path>
                            <path d="M14.055417,29.1930732 C13.1365637,29.1926367 12.2555702,28.7943823 11.6065538,28.0860611 C10.9575374,27.37774 10.5937563,26.4174767 10.5953603,25.4168548 L10.5953603,25.4168548 C10.5953603,23.8399327 11.7692481,22.5615847 13.2173056,22.5615847 L14.7192377,22.5615847 L16.8713503,16.1611586" id="Path"></path>
                            <path d="M18.8734212,29.1930732 C17.9543052,29.1930732 17.0729222,28.7950138 16.4235779,28.086645 C15.7742336,27.3782763 15.4102445,26.4177626 15.4118489,25.4168548 L15.4118489,25.4168548 C15.4118489,23.8399327 16.5857367,22.5615847 18.0337942,22.5615847 L19.5357263,22.5615847 L21.1179837,17.8594666" id="Path"></path>
                            <path d="M27.3833594,21.2214233 L20.4996302,21.2214233 L20.4996302,20.5249355 C20.4996302,19.0395349 21.4089736,17.5689883 22.7108502,17.1547265 L24.3143256,16.6166814 C24.3143256,16.6166814 21.1179837,15.0636126 21.7378528,8.77706713" id="Path"></path>
                        </g>
                        <g id="PANTS" transform="translate(7.880976, 162.238755)" stroke="#59221D" stroke-linecap="round" stroke-linejoin="round">
                            <path d="M105.276195,0.290478341 L105.276195,155.528045 L105.220119,155.420766 L105.220119,176.285693 C105.219282,180.276843 102.248425,183.512993 98.5834281,183.512993 L75.9180451,183.512993 C72.4862326,183.512993 69.7041989,180.483382 69.7041989,176.746168 L69.7041989,73.2995685 C69.7041989,73.2995685 66.1410885,119.446014 30.5690923,175.699785 C29.0883782,178.352051 27.1363211,179.619592 24.9614749,179.951332 C24.4549195,180.027398 23.9433149,180.056111 23.4322625,180.037155 L3.72679216,167.355135 L3.72679216,167.355135 L2.89171185,166.544766 C-0.00362080312,164.045657 -0.834245258,159.644012 0.921467927,156.10405 C12.0215191,133.74217 38.6940751,68.1353257 34.9081756,0.00165044512 L105.276195,0.290478341 Z" id="Path" fill="#FFFFFF" fill-rule="nonzero"></path>
                            <polyline id="Path" points="69.7026833 74.9516641 69.7026833 30.9623504 63.1190375 30.8418679"></polyline>
                            <path d="M90.1962513,59.0859352 L105.259524,59.0859352 L105.259524,64.5010456 L88.7746413,64.5010456 L88.7746413,60.6373536 C88.7738395,60.2261957 88.92326,59.8315774 89.1899503,59.5405347 C89.4566406,59.249492 89.8186919,59.0859352 90.1962513,59.0859352 L90.1962513,59.0859352 Z" id="Path" fill="#FFFFFF" fill-rule="nonzero"></path>
                            <path d="M90.2083714,64.5043465 L105.276195,64.5043465 L105.276195,80.9130718 L92.5150768,80.9130718 C91.9025131,80.9130718 91.3151046,80.6477396 90.8823833,80.175581 C90.449662,79.7034224 90.2071684,79.0632184 90.2083714,78.396143 L90.2083714,64.5010456 L90.2083714,64.5043465 Z" id="Path" fill="#FFFFFF" fill-rule="nonzero"></path>
                        </g>
                        <g id="BACKPACK" transform="translate(40.011107, 64.202315)">
                            <path d="M74.5161408,0.0577655791 L63.1493489,0.0577655791 C58.9863537,0.0577673217 55.4960581,3.48249737 55.063771,7.99145525 L53.3481432,94.3889562 C52.5653086,102.53999 46.2562138,108.730965 38.7304488,108.732975 L13.2627728,108.732975 C9.53968232,108.732975 6.0005688,106.970078 3.56589385,103.902723 C1.1312189,100.835368 0.0416131979,96.7667395 0.580464171,92.7550156 L11.9002733,8.17795555 C12.5266465,3.50844903 16.2056093,0.0475172633 20.5390351,0.0511637986 L28.4927583,0.0511637986 C24.3334605,0.0498685067 20.8446386,3.46880849 20.4086959,7.97330036 L20.2071248,10.074317 C20.0189773,12.0254898 20.5999896,13.9719579 21.8056915,15.4297266 C23.0113933,16.8874953 24.728516,17.7196157 26.5300922,17.7191788 L38.7607603,17.7191788 C41.7589092,17.7137447 44.34714,15.4307102 44.9746065,12.2380505 L45.8839498,7.56564041 C46.7410573,3.18004545 50.2976992,0.0445620181 54.415106,0.0445620181 L74.5161408,0.0577655791 Z" id="Path" fill="#7EBAD2" fill-rule="nonzero"></path>
                            <path d="M0.24249156,92.7550156 C-0.293931748,96.7658804 0.796944898,100.83261 3.2316222,103.898334 C5.66629951,106.964057 9.20435655,108.726373 12.9263157,108.726373 L38.8895839,108.726373 C46.4103621,108.720496 52.7142848,102.534237 53.4997004,94.3889562 L55.212297,7.99145525 C55.6438563,3.48275529 59.1336753,0.0577655791 63.2963594,0.0577655791" id="Path" stroke="#59221D" stroke-linecap="round" stroke-linejoin="round"></path>
                            <path d="M0.347066045,92.7550156 C1.07401263,99.8212705 6.56059718,105.164712 13.0899975,105.164712 L30.5190784,105.164712 C38.0437415,105.161946 44.3517617,98.9720968 45.1352572,90.8223443 L53.4117972,7.99805704 C53.8437353,3.48904098 57.4401882,-0.128734719 63.0114318,0.0643673595" id="Path" stroke="#59221D" stroke-linecap="round" stroke-linejoin="round"></path>
                            <path d="M28.6549245,0.0577655791 C24.4931631,0.0577655791 20.5496441,3.47913831 20.1161905,7.97990214 L19.9131038,10.0809188 C19.7278936,12.0313977 20.3099294,13.9760498 21.5150034,15.4330593 C22.7200773,16.8900688 24.4354348,17.7231084 26.2360712,17.7257806" id="Path" stroke="#59221D" stroke-linecap="round" stroke-linejoin="round"></path>
                            <path d="M14.8995908,69.767616 C13.8857485,69.7680671 13.0335269,70.5967192 12.9187379,71.6936854 L11.4834909,85.5211146 C11.3916091,86.3690194 11.6374603,87.2191941 12.1589082,87.856766 C12.6803561,88.494338 13.4275051,88.8582999 14.211521,88.8566697 L32.3514052,88.8566697 C34.3305339,88.8566697 35.9845174,87.2163999 36.1691317,85.0705431 L37.3527937,71.299229 C37.3864732,70.9058477 37.2664517,70.5152104 37.0221612,70.2231111 C36.7778707,69.9310117 36.4319052,69.7643151 36.069104,69.7643151 L14.8995908,69.767616 Z" id="Path" fill="#FFFFFF" fill-rule="nonzero"></path>
                            <path d="M33.7714964,71.8834866 L9.75876971,71.8834866 L10.2134414,69.2081151 C10.3327292,68.4970467 10.9015646,67.9803697 11.5653318,67.9801839 L34.1003756,67.9801839 L33.7714964,71.8834866 Z" id="Path" stroke="#59221D" stroke-linecap="round" stroke-linejoin="round"></path>
                            <path d="M11.1227847,71.8834866 L9.84212619,83.7336825 C9.75074791,84.5814742 9.99677621,85.431338 10.5181164,86.0687782 C11.0394566,86.7062185 11.7863015,87.0703361 12.5701562,87.0692346 L30.7100405,87.0692346 C32.689445,87.070035 34.3438367,85.4293394 34.527767,83.283111 L35.7114289,69.5150979 C35.7451085,69.1217165 35.6250869,68.7310792 35.3807964,68.4389799 C35.1365059,68.1468806 34.7905405,67.9801839 34.4277392,67.9801839" id="Path" stroke="#59221D" stroke-linecap="round" stroke-linejoin="round"></path>
                            <line x1="17.9428599" y1="25.469669" x2="42.4920991" y2="25.469669" id="Path" stroke="#59221D" stroke-linecap="round" stroke-linejoin="round"></line>
                        </g>
                    </g>
                </g>
            </g>
        </g>
    </g>
</svg>